<svg width="1440" height="1024" viewBox="0 0 1440 1024" fill="none" xmlns="http://www.w3.org/2000/svg">
<rect width="1440" height="1024" fill="white"/>
<mask id="path-1-inside-1_82_37" fill="white">
<path d="M10 10H334V1014H10V10Z"/>
</mask>
<path d="M10 10H334V1014H10V10Z" fill="white"/>
<path d="M334 10H333V1014H334H335V10H334Z" fill="black" fill-opacity="0.2" mask="url(#path-1-inside-1_82_37)"/>
<g clip-path="url(#clip0_82_37)">
<rect width="304" height="83" transform="translate(20 20)" fill="white"/>
<rect x="20" y="20" width="304" height="83" rx="12" fill="white"/>
<mask id="mask0_82_37" style="mask-type:luminance" maskUnits="userSpaceOnUse" x="41" y="31" width="115" height="61">
<path d="M155.981 31H41.019V92H155.981V31Z" fill="white"/>
</mask>
<g mask="url(#mask0_82_37)">
<path fill-rule="evenodd" clip-rule="evenodd" d="M82.8813 61.1639L93.5811 72.6961L78.018 86.0674C69.4291 93.4464 56.4917 92.4964 49.0714 83.9442L46.7191 81.233C39.256 72.6289 40.203 59.5983 48.8316 52.1642L63.1162 39.8591L73.3257 50.8628L60.0934 62.6196C57.2463 65.149 56.9637 69.4961 59.4595 72.3723C61.9813 75.279 66.3865 75.583 69.2856 73.049L82.8813 61.1639Z" fill="#4F46E5"/>
<mask id="mask1_82_37" style="mask-type:luminance" maskUnits="userSpaceOnUse" x="110" y="33" width="46" height="51">
<path d="M110.23 33.7372H155.699V83.0064H110.23V33.7372Z" fill="white"/>
</mask>
<g mask="url(#mask1_82_37)">
<path d="M153.071 80.949C156.269 78.1324 156.579 73.2583 153.764 70.0598L121.814 33.7723L110.233 43.968L142.183 80.2555C144.998 83.454 149.874 83.764 153.071 80.949Z" fill="#4F46E5"/>
</g>
<path d="M122.164 34.0962C120.143 31.8126 116.658 31.5927 114.365 33.6013L87.4378 57.1972C85.1451 59.2058 84.9068 62.6884 86.9017 64.9902L89.9123 68.4652C91.9316 70.7945 95.4661 71.0267 97.774 68.9815L124.597 45.1946C126.886 43.1661 127.096 39.6683 125.069 37.3786L122.164 34.0962Z" fill="#4F46E5"/>
<path d="M78.8321 64.703C81.0881 62.7311 84.502 62.9098 86.538 65.1063L89.6663 68.4788C91.8031 70.7822 91.6 74.3992 89.2157 76.446L78.018 86.0674C69.4291 93.4464 56.4917 92.4979 49.0714 83.9442L46.7191 81.233C39.256 72.6304 40.203 59.5983 48.8316 52.1642L63.1162 39.8591L69.4765 46.7143C71.589 48.9917 71.4164 52.5598 69.0946 54.6219L60.0934 62.6196C57.2463 65.149 56.9637 69.4961 59.4595 72.3723C61.9813 75.279 66.3865 75.583 69.2856 73.0505L78.8321 64.703Z" fill="#4F46E5"/>
<path d="M90.2285 72.8428C90.9968 73.6982 92.3028 73.7944 93.1887 73.0643C94.1495 72.2746 94.2381 70.8342 93.3827 69.9315L85.3942 61.5076C84.6625 60.7363 83.4513 60.6767 82.6478 61.3732C81.8077 62.1018 81.7283 63.3788 82.4706 64.2066L90.2285 72.8428Z" fill="#3730A3"/>
<path d="M118.458 89.8448C121.674 87.0129 121.986 82.1113 119.154 78.8945L78.9593 33.2423C76.934 30.9404 73.4224 30.7235 71.1281 32.7565L63.1167 39.8592L107.567 89.2139C110.411 92.3727 115.268 92.6537 118.458 89.8448Z" fill="#4F46E5"/>
<path d="M91.4048 74.5688L92.9872 73.1849L82.5028 61.5122L80.9204 62.8976L91.4048 74.5688Z" fill="#3730A3"/>
</g>
<path d="M182.213 76.28C179.573 76.28 177.146 75.6667 174.933 74.44C172.746 73.2133 171 71.5067 169.693 69.32C168.413 67.1067 167.773 64.6267 167.773 61.88C167.773 59.1333 168.413 56.6667 169.693 54.48C171 52.2933 172.746 50.5867 174.933 49.36C177.146 48.1333 179.573 47.52 182.213 47.52C184.853 47.52 187.266 48.1333 189.453 49.36C191.666 50.5867 193.4 52.2933 194.653 54.48C195.933 56.6667 196.573 59.1333 196.573 61.88C196.573 64.6267 195.933 67.1067 194.653 69.32C193.373 71.5067 191.64 73.2133 189.453 74.44C187.266 75.6667 184.853 76.28 182.213 76.28ZM182.213 70.04C184.453 70.04 186.24 69.2933 187.573 67.8C188.933 66.3067 189.613 64.3333 189.613 61.88C189.613 59.4 188.933 57.4267 187.573 55.96C186.24 54.4667 184.453 53.72 182.213 53.72C179.946 53.72 178.133 54.4533 176.773 55.92C175.44 57.3867 174.773 59.3733 174.773 61.88C174.773 64.36 175.44 66.3467 176.773 67.84C178.133 69.3067 179.946 70.04 182.213 70.04ZM228.858 53.44C231.632 53.44 233.832 54.28 235.458 55.96C237.112 57.64 237.938 59.9733 237.938 62.96V76H231.138V63.88C231.138 62.44 230.752 61.3333 229.978 60.56C229.232 59.76 228.192 59.36 226.858 59.36C225.525 59.36 224.472 59.76 223.698 60.56C222.952 61.3333 222.578 62.44 222.578 63.88V76H215.778V63.88C215.778 62.44 215.392 61.3333 214.618 60.56C213.872 59.76 212.832 59.36 211.498 59.36C210.165 59.36 209.112 59.76 208.338 60.56C207.592 61.3333 207.218 62.44 207.218 63.88V76H200.378V53.68H207.218V56.48C207.912 55.5467 208.818 54.8133 209.938 54.28C211.058 53.72 212.325 53.44 213.738 53.44C215.418 53.44 216.912 53.8 218.218 54.52C219.552 55.24 220.592 56.2667 221.338 57.6C222.112 56.3733 223.165 55.3733 224.498 54.6C225.832 53.8267 227.285 53.44 228.858 53.44ZM256.322 53.44C258.936 53.44 261.016 54.2933 262.562 56C264.136 57.68 264.922 60 264.922 62.96V76H258.122V63.88C258.122 62.3867 257.736 61.2267 256.962 60.4C256.189 59.5733 255.149 59.16 253.842 59.16C252.536 59.16 251.496 59.5733 250.722 60.4C249.949 61.2267 249.562 62.3867 249.562 63.88V76H242.722V53.68H249.562V56.64C250.256 55.6533 251.189 54.88 252.362 54.32C253.536 53.7333 254.856 53.44 256.322 53.44ZM273.115 51.36C271.915 51.36 270.929 51.0133 270.155 50.32C269.409 49.6 269.035 48.72 269.035 47.68C269.035 46.6133 269.409 45.7333 270.155 45.04C270.929 44.32 271.915 43.96 273.115 43.96C274.289 43.96 275.249 44.32 275.995 45.04C276.769 45.7333 277.155 46.6133 277.155 47.68C277.155 48.72 276.769 49.6 275.995 50.32C275.249 51.0133 274.289 51.36 273.115 51.36ZM276.515 53.68V76H269.675V53.68H276.515ZM294.672 76L290.392 69.8L286.792 76H279.392L286.752 64.6L279.192 53.68H286.872L291.152 59.84L294.752 53.68H302.152L294.672 64.92L302.352 76H294.672Z" fill="black"/>
</g>
<g clip-path="url(#clip1_82_37)">
<rect width="304" height="788" transform="translate(20 113)" fill="white"/>
<g clip-path="url(#clip2_82_37)">
<rect width="304" height="788" transform="translate(20 113)" fill="white"/>
<rect width="284" height="66" transform="translate(30 123)" fill="white"/>
<g clip-path="url(#clip3_82_37)">
<rect width="175" height="36" transform="translate(30 138)" fill="white"/>
<path d="M48.75 167.25V157.25C48.75 156.918 48.6183 156.601 48.3839 156.366C48.1495 156.132 47.8315 156 47.5 156H42.5C42.1685 156 41.8505 156.132 41.6161 156.366C41.3817 156.601 41.25 156.918 41.25 157.25V167.25M33.75 153.5C33.7499 153.136 33.8292 152.777 33.9822 152.447C34.1353 152.117 34.3585 151.825 34.6363 151.59L43.3862 144.09C43.8375 143.709 44.4092 143.499 45 143.499C45.5908 143.499 46.1625 143.709 46.6138 144.09L55.3638 151.59C55.6415 151.825 55.8647 152.117 56.0178 152.447C56.1708 152.777 56.2501 153.136 56.25 153.5V164.75C56.25 165.413 55.9866 166.049 55.5178 166.518C55.0489 166.987 54.413 167.25 53.75 167.25H36.25C35.587 167.25 34.9511 166.987 34.4822 166.518C34.0134 166.049 33.75 165.413 33.75 164.75V153.5Z" stroke="black" stroke-width="2" stroke-linecap="round" stroke-linejoin="round"/>
<path d="M71.263 157.328C71.263 156 71.535 154.824 72.079 153.8C72.639 152.776 73.391 151.984 74.335 151.424C75.295 150.848 76.359 150.56 77.527 150.56C78.391 150.56 79.239 150.752 80.071 151.136C80.919 151.504 81.591 152 82.087 152.624V146.24H84.847V164H82.087V162.008C81.639 162.648 81.015 163.176 80.215 163.592C79.431 164.008 78.527 164.216 77.503 164.216C76.351 164.216 75.295 163.928 74.335 163.352C73.391 162.76 72.639 161.944 72.079 160.904C71.535 159.848 71.263 158.656 71.263 157.328ZM82.087 157.376C82.087 156.464 81.895 155.672 81.511 155C81.143 154.328 80.655 153.816 80.047 153.464C79.439 153.112 78.783 152.936 78.079 152.936C77.375 152.936 76.719 153.112 76.111 153.464C75.503 153.8 75.007 154.304 74.623 154.976C74.255 155.632 74.071 156.416 74.071 157.328C74.071 158.24 74.255 159.04 74.623 159.728C75.007 160.416 75.503 160.944 76.111 161.312C76.735 161.664 77.391 161.84 78.079 161.84C78.783 161.84 79.439 161.664 80.047 161.312C80.655 160.96 81.143 160.448 81.511 159.776C81.895 159.088 82.087 158.288 82.087 157.376ZM87.5286 157.328C87.5286 156 87.8006 154.824 88.3446 153.8C88.9046 152.776 89.6566 151.984 90.6006 151.424C91.5606 150.848 92.6166 150.56 93.7686 150.56C94.8086 150.56 95.7126 150.768 96.4806 151.184C97.2646 151.584 97.8886 152.088 98.3526 152.696V150.776H101.113V164H98.3526V162.032C97.8886 162.656 97.2566 163.176 96.4566 163.592C95.6566 164.008 94.7446 164.216 93.7206 164.216C92.5846 164.216 91.5446 163.928 90.6006 163.352C89.6566 162.76 88.9046 161.944 88.3446 160.904C87.8006 159.848 87.5286 158.656 87.5286 157.328ZM98.3526 157.376C98.3526 156.464 98.1606 155.672 97.7766 155C97.4086 154.328 96.9206 153.816 96.3126 153.464C95.7046 153.112 95.0486 152.936 94.3446 152.936C93.6406 152.936 92.9846 153.112 92.3766 153.464C91.7686 153.8 91.2726 154.304 90.8886 154.976C90.5206 155.632 90.3366 156.416 90.3366 157.328C90.3366 158.24 90.5206 159.04 90.8886 159.728C91.2726 160.416 91.7686 160.944 92.3766 161.312C93.0006 161.664 93.6566 161.84 94.3446 161.84C95.0486 161.84 95.7046 161.664 96.3126 161.312C96.9206 160.96 97.4086 160.448 97.7766 159.776C98.1606 159.088 98.3526 158.288 98.3526 157.376ZM109.506 164.216C108.466 164.216 107.53 164.032 106.698 163.664C105.882 163.28 105.234 162.768 104.754 162.128C104.274 161.472 104.018 160.744 103.986 159.944H106.818C106.866 160.504 107.13 160.976 107.61 161.36C108.106 161.728 108.722 161.912 109.458 161.912C110.226 161.912 110.818 161.768 111.234 161.48C111.666 161.176 111.882 160.792 111.882 160.328C111.882 159.832 111.642 159.464 111.162 159.224C110.698 158.984 109.954 158.72 108.93 158.432C107.938 158.16 107.13 157.896 106.506 157.64C105.882 157.384 105.338 156.992 104.874 156.464C104.426 155.936 104.202 155.24 104.202 154.376C104.202 153.672 104.41 153.032 104.826 152.456C105.242 151.864 105.834 151.4 106.602 151.064C107.386 150.728 108.282 150.56 109.29 150.56C110.794 150.56 112.002 150.944 112.914 151.712C113.842 152.464 114.338 153.496 114.402 154.808H111.666C111.618 154.216 111.378 153.744 110.946 153.392C110.514 153.04 109.93 152.864 109.194 152.864C108.474 152.864 107.922 153 107.538 153.272C107.154 153.544 106.962 153.904 106.962 154.352C106.962 154.704 107.09 155 107.346 155.24C107.602 155.48 107.914 155.672 108.282 155.816C108.65 155.944 109.194 156.112 109.914 156.32C110.874 156.576 111.658 156.84 112.266 157.112C112.89 157.368 113.426 157.752 113.874 158.264C114.322 158.776 114.554 159.456 114.57 160.304C114.57 161.056 114.362 161.728 113.946 162.32C113.53 162.912 112.938 163.376 112.17 163.712C111.418 164.048 110.53 164.216 109.506 164.216ZM124.367 150.56C125.375 150.56 126.271 150.776 127.055 151.208C127.855 151.64 128.479 152.28 128.927 153.128C129.391 153.976 129.623 155 129.623 156.2V164H126.911V156.608C126.911 155.424 126.615 154.52 126.023 153.896C125.431 153.256 124.623 152.936 123.599 152.936C122.575 152.936 121.759 153.256 121.151 153.896C120.559 154.52 120.263 155.424 120.263 156.608V164H117.527V146.24H120.263V152.312C120.727 151.752 121.311 151.32 122.015 151.016C122.735 150.712 123.519 150.56 124.367 150.56ZM135.849 152.744C136.313 152.104 136.945 151.584 137.745 151.184C138.561 150.768 139.465 150.56 140.457 150.56C141.625 150.56 142.681 150.84 143.625 151.4C144.569 151.96 145.313 152.76 145.857 153.8C146.401 154.824 146.673 156 146.673 157.328C146.673 158.656 146.401 159.848 145.857 160.904C145.313 161.944 144.561 162.76 143.601 163.352C142.657 163.928 141.609 164.216 140.457 164.216C139.433 164.216 138.521 164.016 137.721 163.616C136.937 163.216 136.313 162.704 135.849 162.08V164H133.113V146.24H135.849V152.744ZM143.889 157.328C143.889 156.416 143.697 155.632 143.312 154.976C142.945 154.304 142.449 153.8 141.825 153.464C141.217 153.112 140.561 152.936 139.857 152.936C139.169 152.936 138.513 153.112 137.889 153.464C137.281 153.816 136.785 154.328 136.401 155C136.033 155.672 135.849 156.464 135.849 157.376C135.849 158.288 136.033 159.088 136.401 159.776C136.785 160.448 137.281 160.96 137.889 161.312C138.513 161.664 139.169 161.84 139.857 161.84C140.561 161.84 141.217 161.664 141.825 161.312C142.449 160.944 142.945 160.416 143.312 159.728C143.697 159.04 143.889 158.24 143.889 157.328ZM155.114 164.216C153.866 164.216 152.738 163.936 151.73 163.376C150.722 162.8 149.93 162 149.354 160.976C148.778 159.936 148.49 158.736 148.49 157.376C148.49 156.032 148.786 154.84 149.378 153.8C149.97 152.76 150.778 151.96 151.802 151.4C152.826 150.84 153.97 150.56 155.234 150.56C156.498 150.56 157.642 150.84 158.666 151.4C159.69 151.96 160.498 152.76 161.09 153.8C161.682 154.84 161.978 156.032 161.978 157.376C161.978 158.72 161.674 159.912 161.066 160.952C160.458 161.992 159.626 162.8 158.57 163.376C157.53 163.936 156.378 164.216 155.114 164.216ZM155.114 161.84C155.818 161.84 156.474 161.672 157.082 161.336C157.706 161 158.21 160.496 158.594 159.824C158.978 159.152 159.17 158.336 159.17 157.376C159.17 156.416 158.986 155.608 158.618 154.952C158.25 154.28 157.762 153.776 157.154 153.44C156.546 153.104 155.89 152.936 155.186 152.936C154.482 152.936 153.826 153.104 153.218 153.44C152.626 153.776 152.154 154.28 151.802 154.952C151.45 155.608 151.274 156.416 151.274 157.376C151.274 158.8 151.634 159.904 152.354 160.688C153.09 161.456 154.01 161.84 155.114 161.84ZM163.771 157.328C163.771 156 164.043 154.824 164.587 153.8C165.147 152.776 165.899 151.984 166.843 151.424C167.803 150.848 168.859 150.56 170.011 150.56C171.051 150.56 171.955 150.768 172.723 151.184C173.507 151.584 174.131 152.088 174.595 152.696V150.776H177.355V164H174.595V162.032C174.131 162.656 173.499 163.176 172.699 163.592C171.899 164.008 170.987 164.216 169.963 164.216C168.827 164.216 167.787 163.928 166.843 163.352C165.899 162.76 165.147 161.944 164.587 160.904C164.043 159.848 163.771 158.656 163.771 157.328ZM174.595 157.376C174.595 156.464 174.403 155.672 174.019 155C173.651 154.328 173.163 153.816 172.555 153.464C171.947 153.112 171.291 152.936 170.587 152.936C169.883 152.936 169.227 153.112 168.619 153.464C168.011 153.8 167.515 154.304 167.131 154.976C166.763 155.632 166.579 156.416 166.579 157.328C166.579 158.24 166.763 159.04 167.131 159.728C167.515 160.416 168.011 160.944 168.619 161.312C169.243 161.664 169.899 161.84 170.587 161.84C171.291 161.84 171.947 161.664 172.555 161.312C173.163 160.96 173.651 160.448 174.019 159.776C174.403 159.088 174.595 158.288 174.595 157.376ZM183.684 152.696C184.084 152.024 184.612 151.504 185.268 151.136C185.94 150.752 186.732 150.56 187.644 150.56V153.392H186.948C185.876 153.392 185.06 153.664 184.5 154.208C183.956 154.752 183.684 155.696 183.684 157.04V164H180.948V150.776H183.684V152.696ZM189.247 157.328C189.247 156 189.519 154.824 190.063 153.8C190.623 152.776 191.375 151.984 192.319 151.424C193.279 150.848 194.343 150.56 195.511 150.56C196.375 150.56 197.223 150.752 198.055 151.136C198.903 151.504 199.575 152 200.071 152.624V146.24H202.831V164H200.071V162.008C199.623 162.648 198.999 163.176 198.199 163.592C197.415 164.008 196.511 164.216 195.487 164.216C194.335 164.216 193.279 163.928 192.319 163.352C191.375 162.76 190.623 161.944 190.063 160.904C189.519 159.848 189.247 158.656 189.247 157.328ZM200.071 157.376C200.071 156.464 199.879 155.672 199.495 155C199.127 154.328 198.639 153.816 198.031 153.464C197.423 153.112 196.767 152.936 196.063 152.936C195.359 152.936 194.703 153.112 194.095 153.464C193.487 153.8 192.991 154.304 192.607 154.976C192.239 155.632 192.055 156.416 192.055 157.328C192.055 158.24 192.239 159.04 192.607 159.728C192.991 160.416 193.487 160.944 194.095 161.312C194.719 161.664 195.375 161.84 196.063 161.84C196.767 161.84 197.423 161.664 198.031 161.312C198.639 160.96 199.127 160.448 199.495 159.776C199.879 159.088 200.071 158.288 200.071 157.376Z" fill="black"/>
</g>
<rect width="284" height="326" transform="translate(30 199)" fill="white"/>
<g clip-path="url(#clip4_82_37)">
<rect width="284" height="36" transform="translate(30 214)" fill="white"/>
<g clip-path="url(#clip5_82_37)">
<rect width="106" height="36" transform="translate(30 214)" fill="white"/>
<path d="M57.5 232H50L47.5 235.75H42.5L40 232H32.5M57.5 232V239.5C57.5 240.163 57.2366 240.799 56.7678 241.268C56.2989 241.737 55.663 242 55 242H35C34.337 242 33.7011 241.737 33.2322 241.268C32.7634 240.799 32.5 240.163 32.5 239.5V232M57.5 232L53.1875 223.388C52.9805 222.971 52.6615 222.62 52.2662 222.375C51.8709 222.13 51.4151 222 50.95 222H39.05C38.5849 222 38.1291 222.13 37.7338 222.375C37.3385 222.62 37.0195 222.971 36.8125 223.388L32.5 232" stroke="black" stroke-width="2" stroke-linecap="round" stroke-linejoin="round"/>
<path d="M73.4615 225.024C72.9655 225.024 72.5495 224.856 72.2135 224.52C71.8775 224.184 71.7095 223.768 71.7095 223.272C71.7095 222.776 71.8775 222.36 72.2135 222.024C72.5495 221.688 72.9655 221.52 73.4615 221.52C73.9415 221.52 74.3495 221.688 74.6855 222.024C75.0215 222.36 75.1895 222.776 75.1895 223.272C75.1895 223.768 75.0215 224.184 74.6855 224.52C74.3495 224.856 73.9415 225.024 73.4615 225.024ZM74.8055 226.776V240H72.0695V226.776H74.8055ZM85.0697 226.56C86.1097 226.56 87.0377 226.776 87.8537 227.208C88.6857 227.64 89.3337 228.28 89.7977 229.128C90.2617 229.976 90.4937 231 90.4937 232.2V240H87.7817V232.608C87.7817 231.424 87.4857 230.52 86.8937 229.896C86.3017 229.256 85.4937 228.936 84.4697 228.936C83.4457 228.936 82.6297 229.256 82.0217 229.896C81.4297 230.52 81.1337 231.424 81.1337 232.608V240H78.3977V226.776H81.1337V228.288C81.5817 227.744 82.1497 227.32 82.8377 227.016C83.5417 226.712 84.2857 226.56 85.0697 226.56ZM96.7196 228.744C97.1836 228.104 97.8156 227.584 98.6156 227.184C99.4316 226.768 100.336 226.56 101.328 226.56C102.496 226.56 103.552 226.84 104.496 227.4C105.44 227.96 106.184 228.76 106.728 229.8C107.272 230.824 107.544 232 107.544 233.328C107.544 234.656 107.272 235.848 106.728 236.904C106.184 237.944 105.432 238.76 104.472 239.352C103.528 239.928 102.48 240.216 101.328 240.216C100.304 240.216 99.3916 240.016 98.5916 239.616C97.8076 239.216 97.1836 238.704 96.7196 238.08V240H93.9836V222.24H96.7196V228.744ZM104.76 233.328C104.76 232.416 104.568 231.632 104.184 230.976C103.816 230.304 103.32 229.8 102.696 229.464C102.088 229.112 101.432 228.936 100.728 228.936C100.04 228.936 99.3836 229.112 98.7596 229.464C98.1516 229.816 97.6556 230.328 97.2716 231C96.9036 231.672 96.7196 232.464 96.7196 233.376C96.7196 234.288 96.9036 235.088 97.2716 235.776C97.6556 236.448 98.1516 236.96 98.7596 237.312C99.3836 237.664 100.04 237.84 100.728 237.84C101.432 237.84 102.088 237.664 102.696 237.312C103.32 236.944 103.816 236.416 104.184 235.728C104.568 235.04 104.76 234.24 104.76 233.328ZM115.985 240.216C114.737 240.216 113.609 239.936 112.601 239.376C111.593 238.8 110.801 238 110.225 236.976C109.649 235.936 109.361 234.736 109.361 233.376C109.361 232.032 109.657 230.84 110.249 229.8C110.841 228.76 111.649 227.96 112.673 227.4C113.697 226.84 114.841 226.56 116.105 226.56C117.369 226.56 118.513 226.84 119.537 227.4C120.561 227.96 121.369 228.76 121.961 229.8C122.553 230.84 122.849 232.032 122.849 233.376C122.849 234.72 122.545 235.912 121.937 236.952C121.329 237.992 120.497 238.8 119.441 239.376C118.401 239.936 117.249 240.216 115.985 240.216ZM115.985 237.84C116.689 237.84 117.345 237.672 117.953 237.336C118.577 237 119.081 236.496 119.465 235.824C119.849 235.152 120.041 234.336 120.041 233.376C120.041 232.416 119.857 231.608 119.489 230.952C119.121 230.28 118.633 229.776 118.025 229.44C117.417 229.104 116.761 228.936 116.057 228.936C115.353 228.936 114.697 229.104 114.089 229.44C113.497 229.776 113.025 230.28 112.673 230.952C112.321 231.608 112.145 232.416 112.145 233.376C112.145 234.8 112.505 235.904 113.225 236.688C113.961 237.456 114.881 237.84 115.985 237.84ZM131.218 233.304L135.49 240H132.394L129.538 235.512L126.85 240H123.994L128.266 233.496L123.994 226.776H127.09L129.946 231.264L132.634 226.776H135.49L131.218 233.304Z" fill="black"/>
</g>
<path d="M291.5 228.25L299 235.75L306.5 228.25" stroke="black" stroke-width="2.5" stroke-linecap="round" stroke-linejoin="round"/>
</g>
<rect width="284" height="250" transform="translate(30 260)" fill="white"/>
<rect x="40" y="270" width="264" height="50" rx="16" fill="#EEF2FF"/>
<g clip-path="url(#clip6_82_37)">
<g clip-path="url(#clip7_82_37)">
<path d="M67.4721 297.382C67.1751 297.233 65.7141 296.515 65.4421 296.415C65.1691 296.316 64.9711 296.267 64.7721 296.565C64.5751 296.862 64.0051 297.531 63.8321 297.729C63.6591 297.928 63.4851 297.952 63.1881 297.804C62.8911 297.654 61.9331 297.341 60.7981 296.329C59.9151 295.541 59.3181 294.568 59.1451 294.27C58.9721 293.973 59.1271 293.812 59.2751 293.664C59.4091 293.531 59.5731 293.317 59.7211 293.144C59.8701 292.97 59.9191 292.846 60.0191 292.647C60.1181 292.449 60.0691 292.276 59.9941 292.127C59.9191 291.978 59.3251 290.515 59.0781 289.92C58.8361 289.341 58.5911 289.42 58.4091 289.41C58.2361 289.402 58.0381 289.4 57.8391 289.4C57.6411 289.4 57.3191 289.474 57.0471 289.772C56.7751 290.069 56.0071 290.788 56.0071 292.251C56.0071 293.713 57.0721 295.126 57.2201 295.325C57.3691 295.523 59.3161 298.525 62.2971 299.812C63.0061 300.118 63.5591 300.301 63.9911 300.437C64.7031 300.664 65.3511 300.632 65.8621 300.555C66.4331 300.47 67.6201 299.836 67.8681 299.142C68.1161 298.448 68.1161 297.853 68.0411 297.729C67.9671 297.605 67.7701 297.531 67.4721 297.382ZM62.0501 304.785H62.0461C60.2759 304.785 58.5382 304.309 57.0151 303.407L56.6541 303.193L52.9131 304.175L53.9111 300.527L53.6761 300.153C52.6866 298.577 52.1631 296.754 52.1661 294.893C52.1671 289.443 56.6021 285.009 62.0541 285.009C64.6941 285.009 67.1761 286.039 69.0421 287.907C69.9628 288.824 70.6926 289.914 71.1891 291.114C71.6857 292.315 71.9393 293.602 71.9351 294.901C71.9321 300.351 67.4981 304.785 62.0501 304.785ZM70.4631 286.488C69.3613 285.379 68.0504 284.5 66.6062 283.901C65.1621 283.302 63.6135 282.996 62.0501 283C55.4951 283 50.1601 288.335 50.1571 294.892C50.1571 296.988 50.7041 299.034 51.7451 300.837L50.0571 307L56.3621 305.346C58.1057 306.296 60.0596 306.794 62.0451 306.794H62.0501C68.6041 306.794 73.9401 301.459 73.9431 294.901C73.948 293.338 73.6429 291.79 73.0456 290.346C72.4482 288.902 71.5705 287.591 70.4631 286.488Z" fill="#25D366"/>
</g>
<path d="M103.748 288.1L99.6284 302H97.0484L94.1284 291.48L91.0284 302L88.4684 302.02L84.5284 288.1H86.9484L89.8284 299.42L92.9484 288.1H95.5084L98.4084 299.36L101.308 288.1H103.748ZM111.329 290.8C112.169 290.8 112.916 290.98 113.569 291.34C114.236 291.7 114.756 292.233 115.129 292.94C115.516 293.647 115.709 294.5 115.709 295.5V302H113.449V295.84C113.449 294.853 113.202 294.1 112.709 293.58C112.216 293.047 111.542 292.78 110.689 292.78C109.836 292.78 109.156 293.047 108.649 293.58C108.156 294.1 107.909 294.853 107.909 295.84V302H105.629V287.2H107.909V292.26C108.296 291.793 108.782 291.433 109.369 291.18C109.969 290.927 110.622 290.8 111.329 290.8ZM117.857 296.44C117.857 295.333 118.084 294.353 118.537 293.5C119.004 292.647 119.631 291.987 120.417 291.52C121.217 291.04 122.097 290.8 123.057 290.8C123.924 290.8 124.677 290.973 125.317 291.32C125.971 291.653 126.491 292.073 126.877 292.58V290.98H129.177V302H126.877V300.36C126.491 300.88 125.964 301.313 125.297 301.66C124.631 302.007 123.871 302.18 123.017 302.18C122.071 302.18 121.204 301.94 120.417 301.46C119.631 300.967 119.004 300.287 118.537 299.42C118.084 298.54 117.857 297.547 117.857 296.44ZM126.877 296.48C126.877 295.72 126.717 295.06 126.397 294.5C126.091 293.94 125.684 293.513 125.177 293.22C124.671 292.927 124.124 292.78 123.537 292.78C122.951 292.78 122.404 292.927 121.897 293.22C121.391 293.5 120.977 293.92 120.657 294.48C120.351 295.027 120.197 295.68 120.197 296.44C120.197 297.2 120.351 297.867 120.657 298.44C120.977 299.013 121.391 299.453 121.897 299.76C122.417 300.053 122.964 300.2 123.537 300.2C124.124 300.2 124.671 300.053 125.177 299.76C125.684 299.467 126.091 299.04 126.397 298.48C126.717 297.907 126.877 297.24 126.877 296.48ZM134.832 292.84V298.94C134.832 299.353 134.925 299.653 135.112 299.84C135.312 300.013 135.645 300.1 136.112 300.1H137.512V302H135.712C134.685 302 133.899 301.76 133.352 301.28C132.805 300.8 132.532 300.02 132.532 298.94V292.84H131.232V290.98H132.532V288.24H134.832V290.98H137.512V292.84H134.832ZM143.613 302.18C142.747 302.18 141.967 302.027 141.273 301.72C140.593 301.4 140.053 300.973 139.653 300.44C139.253 299.893 139.04 299.287 139.013 298.62H141.373C141.413 299.087 141.633 299.48 142.033 299.8C142.447 300.107 142.96 300.26 143.573 300.26C144.213 300.26 144.707 300.14 145.053 299.9C145.413 299.647 145.593 299.327 145.593 298.94C145.593 298.527 145.393 298.22 144.993 298.02C144.607 297.82 143.987 297.6 143.133 297.36C142.307 297.133 141.633 296.913 141.113 296.7C140.593 296.487 140.14 296.16 139.753 295.72C139.38 295.28 139.193 294.7 139.193 293.98C139.193 293.393 139.367 292.86 139.713 292.38C140.06 291.887 140.553 291.5 141.193 291.22C141.847 290.94 142.593 290.8 143.433 290.8C144.687 290.8 145.693 291.12 146.453 291.76C147.227 292.387 147.64 293.247 147.693 294.34H145.413C145.373 293.847 145.173 293.453 144.813 293.16C144.453 292.867 143.967 292.72 143.353 292.72C142.753 292.72 142.293 292.833 141.973 293.06C141.653 293.287 141.493 293.587 141.493 293.96C141.493 294.253 141.6 294.5 141.813 294.7C142.027 294.9 142.287 295.06 142.593 295.18C142.9 295.287 143.353 295.427 143.953 295.6C144.753 295.813 145.407 296.033 145.913 296.26C146.433 296.473 146.88 296.793 147.253 297.22C147.627 297.647 147.82 298.213 147.833 298.92C147.833 299.547 147.66 300.107 147.313 300.6C146.967 301.093 146.473 301.48 145.833 301.76C145.207 302.04 144.467 302.18 143.613 302.18ZM158.677 299.16H152.857L151.857 302H149.477L154.457 288.08H157.097L162.077 302H159.677L158.677 299.16ZM158.037 297.3L155.777 290.84L153.497 297.3H158.037ZM166.522 292.6C166.909 292.093 167.436 291.667 168.102 291.32C168.769 290.973 169.522 290.8 170.362 290.8C171.322 290.8 172.196 291.04 172.982 291.52C173.782 291.987 174.409 292.647 174.862 293.5C175.316 294.353 175.542 295.333 175.542 296.44C175.542 297.547 175.316 298.54 174.862 299.42C174.409 300.287 173.782 300.967 172.982 301.46C172.196 301.94 171.322 302.18 170.362 302.18C169.522 302.18 168.776 302.013 168.122 301.68C167.469 301.333 166.936 300.907 166.522 300.4V307.24H164.242V290.98H166.522V292.6ZM173.222 296.44C173.222 295.68 173.062 295.027 172.742 294.48C172.436 293.92 172.022 293.5 171.502 293.22C170.996 292.927 170.449 292.78 169.862 292.78C169.289 292.78 168.742 292.927 168.222 293.22C167.716 293.513 167.302 293.94 166.982 294.5C166.676 295.06 166.522 295.72 166.522 296.48C166.522 297.24 166.676 297.907 166.982 298.48C167.302 299.04 167.716 299.467 168.222 299.76C168.742 300.053 169.289 300.2 169.862 300.2C170.449 300.2 170.996 300.053 171.502 299.76C172.022 299.453 172.436 299.013 172.742 298.44C173.062 297.867 173.222 297.2 173.222 296.44ZM180.077 292.6C180.464 292.093 180.99 291.667 181.657 291.32C182.324 290.973 183.077 290.8 183.917 290.8C184.877 290.8 185.75 291.04 186.537 291.52C187.337 291.987 187.964 292.647 188.417 293.5C188.87 294.353 189.097 295.333 189.097 296.44C189.097 297.547 188.87 298.54 188.417 299.42C187.964 300.287 187.337 300.967 186.537 301.46C185.75 301.94 184.877 302.18 183.917 302.18C183.077 302.18 182.33 302.013 181.677 301.68C181.024 301.333 180.49 300.907 180.077 300.4V307.24H177.797V290.98H180.077V292.6ZM186.777 296.44C186.777 295.68 186.617 295.027 186.297 294.48C185.99 293.92 185.577 293.5 185.057 293.22C184.55 292.927 184.004 292.78 183.417 292.78C182.844 292.78 182.297 292.927 181.777 293.22C181.27 293.513 180.857 293.94 180.537 294.5C180.23 295.06 180.077 295.72 180.077 296.48C180.077 297.24 180.23 297.907 180.537 298.48C180.857 299.04 181.27 299.467 181.777 299.76C182.297 300.053 182.844 300.2 183.417 300.2C184.004 300.2 184.55 300.053 185.057 299.76C185.577 299.453 185.99 299.013 186.297 298.44C186.617 297.867 186.777 297.2 186.777 296.44Z" fill="black"/>
</g>
<rect x="40" y="330" width="264" height="50" rx="16" fill="white"/>
<g clip-path="url(#clip8_82_37)">
<rect width="177" height="30" transform="translate(50 340)" fill="white"/>
<g clip-path="url(#clip9_82_37)">
<path d="M57.0301 343.084C55.7533 343.144 54.8814 343.348 54.1191 343.647C53.3303 343.955 52.6616 344.367 51.9963 345.035C51.3311 345.703 50.9213 346.372 50.6161 347.162C50.3207 347.926 50.1205 348.799 50.0641 350.076C50.0077 351.354 49.9952 351.764 50.0015 355.023C50.0077 358.282 50.0221 358.69 50.084 359.97C50.145 361.247 50.348 362.119 50.6475 362.881C50.9555 363.67 51.3675 364.338 52.0355 365.004C52.7034 365.669 53.372 366.078 54.164 366.384C54.9272 366.679 55.8001 366.88 57.0774 366.936C58.3547 366.992 58.7658 367.005 62.0236 366.999C65.2814 366.992 65.6916 366.978 66.9714 366.917C68.2514 366.857 69.1184 366.652 69.8812 366.354C70.6701 366.045 71.339 365.634 72.004 364.966C72.669 364.298 73.0785 363.628 73.3835 362.837C73.6792 362.074 73.8801 361.201 73.9355 359.925C73.9915 358.644 74.0047 358.235 73.9985 354.977C73.9922 351.719 73.9775 351.31 73.9168 350.031C73.8561 348.751 73.6528 347.882 73.3535 347.119C73.0451 346.33 72.6335 345.662 71.9659 344.996C71.2982 344.33 70.628 343.921 69.8378 343.617C69.074 343.321 68.2017 343.12 66.9244 343.065C65.6471 343.009 65.236 342.995 61.977 343.001C58.718 343.008 58.31 343.022 57.0301 343.084ZM57.1703 364.777C56.0003 364.726 55.365 364.532 54.9416 364.369C54.381 364.153 53.9816 363.892 53.5597 363.474C53.1377 363.056 52.8786 362.656 52.6597 362.096C52.4953 361.673 52.2973 361.038 52.2426 359.868C52.1831 358.604 52.1706 358.224 52.1636 355.02C52.1566 351.816 52.1689 351.437 52.2243 350.172C52.2743 349.003 52.4699 348.367 52.6323 347.944C52.8483 347.383 53.1085 346.984 53.5273 346.562C53.9461 346.141 54.3457 345.881 54.9056 345.662C55.3286 345.497 55.9631 345.301 57.1326 345.245C58.3981 345.185 58.7773 345.173 61.9806 345.166C65.1839 345.159 65.5641 345.171 66.8301 345.227C67.9991 345.278 68.6354 345.471 69.0581 345.635C69.6189 345.851 70.0181 346.11 70.4397 346.53C70.8614 346.949 71.1213 347.347 71.3402 347.908C71.5055 348.33 71.7019 348.964 71.7571 350.135C71.8173 351.4 71.831 351.78 71.8367 354.983C71.8425 358.186 71.8312 358.566 71.7757 359.831C71.7247 361.001 71.5307 361.636 71.3677 362.06C71.1517 362.621 70.8914 363.02 70.4723 363.442C70.0533 363.863 69.6542 364.123 69.094 364.342C68.6716 364.506 68.0363 364.703 66.8678 364.759C65.6022 364.818 65.223 364.831 62.0185 364.838C58.814 364.845 58.4358 364.832 57.1703 364.777ZM66.953 348.586C66.9535 348.871 67.0384 349.15 67.197 349.386C67.3557 349.623 67.5809 349.807 67.8443 349.915C68.1076 350.024 68.3972 350.052 68.6765 349.996C68.9557 349.94 69.2121 349.802 69.4131 349.6C69.6141 349.399 69.7508 349.142 69.8058 348.862C69.8609 348.583 69.8318 348.293 69.7223 348.03C69.6128 347.767 69.4277 347.543 69.1906 347.385C68.9534 347.227 68.6748 347.143 68.39 347.144C68.0082 347.145 67.6423 347.297 67.3728 347.568C67.1034 347.838 66.9523 348.205 66.953 348.586ZM55.8385 355.012C55.8452 358.415 58.6091 361.168 62.0115 361.161C65.4141 361.155 68.1685 358.391 68.1621 354.988C68.1556 351.585 65.3911 348.832 61.9881 348.838C58.5851 348.845 55.8321 351.609 55.8385 355.012ZM58 355.008C57.9984 354.217 58.2315 353.443 58.6697 352.784C59.1079 352.125 59.7316 351.612 60.4619 351.307C61.1922 351.003 61.9963 350.922 62.7726 351.075C63.5488 351.228 64.2623 351.607 64.8228 352.166C65.3833 352.724 65.7657 353.436 65.9216 354.212C66.0774 354.987 65.9998 355.792 65.6985 356.523C65.3972 357.255 64.8858 357.88 64.2289 358.321C63.572 358.762 62.7991 358.998 62.008 359C61.4827 359.001 60.9623 358.899 60.4766 358.698C59.9908 358.498 59.5492 358.205 59.1771 357.834C58.8049 357.463 58.5094 357.023 58.3074 356.538C58.1054 356.053 58.001 355.533 58 355.008Z" fill="#FF0069"/>
</g>
<path d="M88.0202 348.1V362H85.7402V348.1H88.0202ZM96.5737 350.8C97.4403 350.8 98.2137 350.98 98.8937 351.34C99.587 351.7 100.127 352.233 100.514 352.94C100.9 353.647 101.094 354.5 101.094 355.5V362H98.8337V355.84C98.8337 354.853 98.587 354.1 98.0937 353.58C97.6003 353.047 96.927 352.78 96.0737 352.78C95.2203 352.78 94.5403 353.047 94.0337 353.58C93.5403 354.1 93.2937 354.853 93.2937 355.84V362H91.0137V350.98H93.2937V352.24C93.667 351.787 94.1403 351.433 94.7137 351.18C95.3003 350.927 95.9203 350.8 96.5737 350.8ZM108.002 362.18C107.135 362.18 106.355 362.027 105.662 361.72C104.982 361.4 104.442 360.973 104.042 360.44C103.642 359.893 103.429 359.287 103.402 358.62H105.762C105.802 359.087 106.022 359.48 106.422 359.8C106.835 360.107 107.349 360.26 107.962 360.26C108.602 360.26 109.095 360.14 109.442 359.9C109.802 359.647 109.982 359.327 109.982 358.94C109.982 358.527 109.782 358.22 109.382 358.02C108.995 357.82 108.375 357.6 107.522 357.36C106.695 357.133 106.022 356.913 105.502 356.7C104.982 356.487 104.529 356.16 104.142 355.72C103.769 355.28 103.582 354.7 103.582 353.98C103.582 353.393 103.755 352.86 104.102 352.38C104.449 351.887 104.942 351.5 105.582 351.22C106.235 350.94 106.982 350.8 107.822 350.8C109.075 350.8 110.082 351.12 110.842 351.76C111.615 352.387 112.029 353.247 112.082 354.34H109.802C109.762 353.847 109.562 353.453 109.202 353.16C108.842 352.867 108.355 352.72 107.742 352.72C107.142 352.72 106.682 352.833 106.362 353.06C106.042 353.287 105.882 353.587 105.882 353.96C105.882 354.253 105.989 354.5 106.202 354.7C106.415 354.9 106.675 355.06 106.982 355.18C107.289 355.287 107.742 355.427 108.342 355.6C109.142 355.813 109.795 356.033 110.302 356.26C110.822 356.473 111.269 356.793 111.642 357.22C112.015 357.647 112.209 358.213 112.222 358.92C112.222 359.547 112.049 360.107 111.702 360.6C111.355 361.093 110.862 361.48 110.222 361.76C109.595 362.04 108.855 362.18 108.002 362.18ZM117.346 352.84V358.94C117.346 359.353 117.439 359.653 117.626 359.84C117.826 360.013 118.159 360.1 118.626 360.1H120.026V362H118.226C117.199 362 116.412 361.76 115.866 361.28C115.319 360.8 115.046 360.02 115.046 358.94V352.84H113.746V350.98H115.046V348.24H117.346V350.98H120.026V352.84H117.346ZM126.567 350.8C127.42 350.8 128.174 350.973 128.827 351.32C129.494 351.653 130.014 352.073 130.387 352.58V350.98H132.687V362.18C132.687 363.193 132.474 364.093 132.047 364.88C131.62 365.68 131 366.307 130.187 366.76C129.387 367.213 128.427 367.44 127.307 367.44C125.814 367.44 124.574 367.087 123.587 366.38C122.6 365.687 122.04 364.74 121.907 363.54H124.167C124.34 364.113 124.707 364.573 125.267 364.92C125.84 365.28 126.52 365.46 127.307 365.46C128.227 365.46 128.967 365.18 129.527 364.62C130.1 364.06 130.387 363.247 130.387 362.18V360.34C130 360.86 129.474 361.3 128.807 361.66C128.154 362.007 127.407 362.18 126.567 362.18C125.607 362.18 124.727 361.94 123.927 361.46C123.14 360.967 122.514 360.287 122.047 359.42C121.594 358.54 121.367 357.547 121.367 356.44C121.367 355.333 121.594 354.353 122.047 353.5C122.514 352.647 123.14 351.987 123.927 351.52C124.727 351.04 125.607 350.8 126.567 350.8ZM130.387 356.48C130.387 355.72 130.227 355.06 129.907 354.5C129.6 353.94 129.194 353.513 128.687 353.22C128.18 352.927 127.634 352.78 127.047 352.78C126.46 352.78 125.914 352.927 125.407 353.22C124.9 353.5 124.487 353.92 124.167 354.48C123.86 355.027 123.707 355.68 123.707 356.44C123.707 357.2 123.86 357.867 124.167 358.44C124.487 359.013 124.9 359.453 125.407 359.76C125.927 360.053 126.474 360.2 127.047 360.2C127.634 360.2 128.18 360.053 128.687 359.76C129.194 359.467 129.6 359.04 129.907 358.48C130.227 357.907 130.387 357.24 130.387 356.48ZM134.922 356.44C134.922 355.333 135.148 354.353 135.602 353.5C136.068 352.647 136.695 351.987 137.482 351.52C138.282 351.04 139.162 350.8 140.122 350.8C140.988 350.8 141.742 350.973 142.382 351.32C143.035 351.653 143.555 352.073 143.942 352.58V350.98H146.242V362H143.942V360.36C143.555 360.88 143.028 361.313 142.362 361.66C141.695 362.007 140.935 362.18 140.082 362.18C139.135 362.18 138.268 361.94 137.482 361.46C136.695 360.967 136.068 360.287 135.602 359.42C135.148 358.54 134.922 357.547 134.922 356.44ZM143.942 356.48C143.942 355.72 143.782 355.06 143.462 354.5C143.155 353.94 142.748 353.513 142.242 353.22C141.735 352.927 141.188 352.78 140.602 352.78C140.015 352.78 139.468 352.927 138.962 353.22C138.455 353.5 138.042 353.92 137.722 354.48C137.415 355.027 137.262 355.68 137.262 356.44C137.262 357.2 137.415 357.867 137.722 358.44C138.042 359.013 138.455 359.453 138.962 359.76C139.482 360.053 140.028 360.2 140.602 360.2C141.188 360.2 141.735 360.053 142.242 359.76C142.748 359.467 143.155 359.04 143.462 358.48C143.782 357.907 143.942 357.24 143.942 356.48ZM151.516 352.58C151.85 352.02 152.29 351.587 152.836 351.28C153.396 350.96 154.056 350.8 154.816 350.8V353.16H154.236C153.343 353.16 152.663 353.387 152.196 353.84C151.743 354.293 151.516 355.08 151.516 356.2V362H149.236V350.98H151.516V352.58ZM156.152 356.44C156.152 355.333 156.379 354.353 156.832 353.5C157.299 352.647 157.925 351.987 158.712 351.52C159.512 351.04 160.392 350.8 161.352 350.8C162.219 350.8 162.972 350.973 163.612 351.32C164.265 351.653 164.785 352.073 165.172 352.58V350.98H167.472V362H165.172V360.36C164.785 360.88 164.259 361.313 163.592 361.66C162.925 362.007 162.165 362.18 161.312 362.18C160.365 362.18 159.499 361.94 158.712 361.46C157.925 360.967 157.299 360.287 156.832 359.42C156.379 358.54 156.152 357.547 156.152 356.44ZM165.172 356.48C165.172 355.72 165.012 355.06 164.692 354.5C164.385 353.94 163.979 353.513 163.472 353.22C162.965 352.927 162.419 352.78 161.832 352.78C161.245 352.78 160.699 352.927 160.192 353.22C159.685 353.5 159.272 353.92 158.952 354.48C158.645 355.027 158.492 355.68 158.492 356.44C158.492 357.2 158.645 357.867 158.952 358.44C159.272 359.013 159.685 359.453 160.192 359.76C160.712 360.053 161.259 360.2 161.832 360.2C162.419 360.2 162.965 360.053 163.472 359.76C163.979 359.467 164.385 359.04 164.692 358.48C165.012 357.907 165.172 357.24 165.172 356.48ZM183.807 350.8C184.673 350.8 185.447 350.98 186.127 351.34C186.82 351.7 187.36 352.233 187.747 352.94C188.147 353.647 188.347 354.5 188.347 355.5V362H186.087V355.84C186.087 354.853 185.84 354.1 185.347 353.58C184.853 353.047 184.18 352.78 183.327 352.78C182.473 352.78 181.793 353.047 181.287 353.58C180.793 354.1 180.547 354.853 180.547 355.84V362H178.287V355.84C178.287 354.853 178.04 354.1 177.547 353.58C177.053 353.047 176.38 352.78 175.527 352.78C174.673 352.78 173.993 353.047 173.487 353.58C172.993 354.1 172.747 354.853 172.747 355.84V362H170.467V350.98H172.747V352.24C173.12 351.787 173.593 351.433 174.167 351.18C174.74 350.927 175.353 350.8 176.007 350.8C176.887 350.8 177.673 350.987 178.367 351.36C179.06 351.733 179.593 352.273 179.967 352.98C180.3 352.313 180.82 351.787 181.527 351.4C182.233 351 182.993 350.8 183.807 350.8ZM200.983 348.1C202.463 348.1 203.757 348.387 204.863 348.96C205.983 349.52 206.843 350.333 207.443 351.4C208.057 352.453 208.363 353.687 208.363 355.1C208.363 356.513 208.057 357.74 207.443 358.78C206.843 359.82 205.983 360.62 204.863 361.18C203.757 361.727 202.463 362 200.983 362H196.443V348.1H200.983ZM200.983 360.14C202.61 360.14 203.857 359.7 204.723 358.82C205.59 357.94 206.023 356.7 206.023 355.1C206.023 353.487 205.59 352.227 204.723 351.32C203.857 350.413 202.61 349.96 200.983 349.96H198.723V360.14H200.983ZM225.263 348.1V362H222.983V352.48L218.743 362H217.163L212.903 352.48V362H210.623V348.1H213.083L217.963 359L222.823 348.1H225.263Z" fill="black"/>
</g>
<rect x="40" y="390" width="264" height="50" rx="16" fill="white"/>
<g clip-path="url(#clip10_82_37)">
<rect width="131" height="30" transform="translate(50 400)" fill="white"/>
<g clip-path="url(#clip11_82_37)">
<path d="M61.944 403C58.7711 403.015 55.7332 404.286 53.4949 406.534C51.2566 408.783 50 411.827 50 415C50 418.183 51.2643 421.235 53.5147 423.485C55.7652 425.736 58.8174 427 62 427C65.1826 427 68.2348 425.736 70.4853 423.485C72.7357 421.235 74 418.183 74 415C74 411.817 72.7357 408.765 70.4853 406.515C68.2348 404.264 65.1826 403 62 403C61.9813 403 61.9627 403 61.944 403ZM66.906 410.224C67.006 410.222 67.227 410.247 67.371 410.364C67.4667 410.447 67.5277 410.563 67.542 410.689C67.558 410.782 67.578 410.995 67.562 411.161C67.382 413.059 66.6 417.663 66.202 419.788C66.034 420.688 65.703 420.989 65.382 421.018C64.686 421.083 64.157 420.558 63.482 420.116C62.426 419.423 61.829 418.992 60.804 418.316C59.619 417.536 60.387 417.106 61.062 416.406C61.239 416.222 64.309 413.429 64.369 413.176C64.376 413.144 64.383 413.026 64.313 412.964C64.243 412.902 64.139 412.923 64.064 412.94C63.958 412.964 62.271 414.08 59.003 416.285C58.523 416.615 58.09 416.775 57.701 416.765C57.273 416.757 56.449 416.524 55.836 416.325C55.084 416.08 54.487 415.951 54.539 415.536C54.566 415.32 54.864 415.099 55.432 414.873C58.93 413.349 61.262 412.344 62.43 411.859C65.762 410.473 66.455 410.232 66.906 410.224Z" fill="#26A5E4"/>
</g>
<path d="M94.5718 408.1V409.96H90.8718V422H88.5918V409.96H84.8718V408.1H94.5718ZM106.981 416.22C106.981 416.633 106.954 417.007 106.901 417.34H98.4809C98.5475 418.22 98.8742 418.927 99.4609 419.46C100.048 419.993 100.768 420.26 101.621 420.26C102.848 420.26 103.714 419.747 104.221 418.72H106.681C106.348 419.733 105.741 420.567 104.861 421.22C103.994 421.86 102.914 422.18 101.621 422.18C100.568 422.18 99.6209 421.947 98.7809 421.48C97.9542 421 97.3009 420.333 96.8209 419.48C96.3542 418.613 96.1209 417.613 96.1209 416.48C96.1209 415.347 96.3475 414.353 96.8009 413.5C97.2675 412.633 97.9142 411.967 98.7409 411.5C99.5809 411.033 100.541 410.8 101.621 410.8C102.661 410.8 103.588 411.027 104.401 411.48C105.214 411.933 105.848 412.573 106.301 413.4C106.754 414.213 106.981 415.153 106.981 416.22ZM104.601 415.5C104.588 414.66 104.288 413.987 103.701 413.48C103.114 412.973 102.388 412.72 101.521 412.72C100.734 412.72 100.061 412.973 99.5009 413.48C98.9409 413.973 98.6075 414.647 98.5009 415.5H104.601ZM111.505 407.2V422H109.225V407.2H111.505ZM124.598 416.22C124.598 416.633 124.571 417.007 124.518 417.34H116.098C116.165 418.22 116.491 418.927 117.078 419.46C117.665 419.993 118.385 420.26 119.238 420.26C120.465 420.26 121.331 419.747 121.838 418.72H124.298C123.965 419.733 123.358 420.567 122.478 421.22C121.611 421.86 120.531 422.18 119.238 422.18C118.185 422.18 117.238 421.947 116.398 421.48C115.571 421 114.918 420.333 114.438 419.48C113.971 418.613 113.738 417.613 113.738 416.48C113.738 415.347 113.965 414.353 114.418 413.5C114.885 412.633 115.531 411.967 116.358 411.5C117.198 411.033 118.158 410.8 119.238 410.8C120.278 410.8 121.205 411.027 122.018 411.48C122.831 411.933 123.465 412.573 123.918 413.4C124.371 414.213 124.598 415.153 124.598 416.22ZM122.218 415.5C122.205 414.66 121.905 413.987 121.318 413.48C120.731 412.973 120.005 412.72 119.138 412.72C118.351 412.72 117.678 412.973 117.118 413.48C116.558 413.973 116.225 414.647 116.118 415.5H122.218ZM131.282 410.8C132.135 410.8 132.888 410.973 133.542 411.32C134.208 411.653 134.728 412.073 135.102 412.58V410.98H137.402V422.18C137.402 423.193 137.188 424.093 136.762 424.88C136.335 425.68 135.715 426.307 134.902 426.76C134.102 427.213 133.142 427.44 132.022 427.44C130.528 427.44 129.288 427.087 128.302 426.38C127.315 425.687 126.755 424.74 126.622 423.54H128.882C129.055 424.113 129.422 424.573 129.982 424.92C130.555 425.28 131.235 425.46 132.022 425.46C132.942 425.46 133.682 425.18 134.242 424.62C134.815 424.06 135.102 423.247 135.102 422.18V420.34C134.715 420.86 134.188 421.3 133.522 421.66C132.868 422.007 132.122 422.18 131.282 422.18C130.322 422.18 129.442 421.94 128.642 421.46C127.855 420.967 127.228 420.287 126.762 419.42C126.308 418.54 126.082 417.547 126.082 416.44C126.082 415.333 126.308 414.353 126.762 413.5C127.228 412.647 127.855 411.987 128.642 411.52C129.442 411.04 130.322 410.8 131.282 410.8ZM135.102 416.48C135.102 415.72 134.942 415.06 134.622 414.5C134.315 413.94 133.908 413.513 133.402 413.22C132.895 412.927 132.348 412.78 131.762 412.78C131.175 412.78 130.628 412.927 130.122 413.22C129.615 413.5 129.202 413.92 128.882 414.48C128.575 415.027 128.422 415.68 128.422 416.44C128.422 417.2 128.575 417.867 128.882 418.44C129.202 419.013 129.615 419.453 130.122 419.76C130.642 420.053 131.188 420.2 131.762 420.2C132.348 420.2 132.895 420.053 133.402 419.76C133.908 419.467 134.315 419.04 134.622 418.48C134.942 417.907 135.102 417.24 135.102 416.48ZM142.676 412.58C143.01 412.02 143.45 411.587 143.996 411.28C144.556 410.96 145.216 410.8 145.976 410.8V413.16H145.396C144.503 413.16 143.823 413.387 143.356 413.84C142.903 414.293 142.676 415.08 142.676 416.2V422H140.396V410.98H142.676V412.58ZM147.312 416.44C147.312 415.333 147.539 414.353 147.992 413.5C148.459 412.647 149.086 411.987 149.872 411.52C150.672 411.04 151.552 410.8 152.512 410.8C153.379 410.8 154.132 410.973 154.772 411.32C155.426 411.653 155.946 412.073 156.332 412.58V410.98H158.632V422H156.332V420.36C155.946 420.88 155.419 421.313 154.752 421.66C154.086 422.007 153.326 422.18 152.472 422.18C151.526 422.18 150.659 421.94 149.872 421.46C149.086 420.967 148.459 420.287 147.992 419.42C147.539 418.54 147.312 417.547 147.312 416.44ZM156.332 416.48C156.332 415.72 156.172 415.06 155.852 414.5C155.546 413.94 155.139 413.513 154.632 413.22C154.126 412.927 153.579 412.78 152.992 412.78C152.406 412.78 151.859 412.927 151.352 413.22C150.846 413.5 150.432 413.92 150.112 414.48C149.806 415.027 149.652 415.68 149.652 416.44C149.652 417.2 149.806 417.867 150.112 418.44C150.432 419.013 150.846 419.453 151.352 419.76C151.872 420.053 152.419 420.2 152.992 420.2C153.579 420.2 154.126 420.053 154.632 419.76C155.139 419.467 155.546 419.04 155.852 418.48C156.172 417.907 156.332 417.24 156.332 416.48ZM174.967 410.8C175.834 410.8 176.607 410.98 177.287 411.34C177.98 411.7 178.52 412.233 178.907 412.94C179.307 413.647 179.507 414.5 179.507 415.5V422H177.247V415.84C177.247 414.853 177 414.1 176.507 413.58C176.014 413.047 175.34 412.78 174.487 412.78C173.634 412.78 172.954 413.047 172.447 413.58C171.954 414.1 171.707 414.853 171.707 415.84V422H169.447V415.84C169.447 414.853 169.2 414.1 168.707 413.58C168.214 413.047 167.54 412.78 166.687 412.78C165.834 412.78 165.154 413.047 164.647 413.58C164.154 414.1 163.907 414.853 163.907 415.84V422H161.627V410.98H163.907V412.24C164.28 411.787 164.754 411.433 165.327 411.18C165.9 410.927 166.514 410.8 167.167 410.8C168.047 410.8 168.834 410.987 169.527 411.36C170.22 411.733 170.754 412.273 171.127 412.98C171.46 412.313 171.98 411.787 172.687 411.4C173.394 411 174.154 410.8 174.967 410.8Z" fill="black"/>
</g>
<rect x="40" y="450" width="264" height="50" rx="16" fill="white"/>
<g clip-path="url(#clip12_82_37)">
<rect width="146" height="30" transform="translate(50 460)" fill="white"/>
<g clip-path="url(#clip13_82_37)">
<path d="M62 463C55.24 463 50 467.952 50 474.64C50 478.139 51.434 481.161 53.769 483.25C53.8662 483.336 53.945 483.441 54.0005 483.558C54.056 483.676 54.0872 483.803 54.092 483.933L54.157 486.068C54.1616 486.225 54.2049 486.379 54.2829 486.516C54.3608 486.652 54.4712 486.768 54.6043 486.852C54.7373 486.935 54.8889 486.985 55.0458 486.997C55.2027 487.009 55.3601 486.981 55.504 486.918L57.885 485.865C58.087 485.776 58.3134 485.76 58.526 485.819C59.6579 486.129 60.8265 486.284 62 486.28C68.76 486.28 74 481.328 74 474.64C74 467.952 68.76 463 62 463ZM68.806 470.44C69.328 470.41 69.777 471.007 69.436 471.534L65.258 477.991C65.1559 478.148 64.9957 478.258 64.8125 478.297C64.6294 478.336 64.4382 478.301 64.281 478.199L60.411 475.695C60.3378 475.647 60.2522 475.623 60.1649 475.624C60.0777 475.625 59.9928 475.652 59.921 475.702L55.558 478.712C54.921 479.15 54.143 478.395 54.563 477.746L58.742 471.289C58.7923 471.211 58.8575 471.144 58.9338 471.091C59.0102 471.038 59.0962 471.001 59.187 470.981C59.2777 470.962 59.3714 470.96 59.4627 470.977C59.554 470.994 59.6411 471.029 59.719 471.079L63.589 473.584C63.739 473.681 63.933 473.678 64.08 473.577L68.442 470.569C68.5487 470.492 68.6749 470.448 68.806 470.44Z" fill="#0866FF"/>
</g>
<path d="M100.408 468.1V482H98.1276V472.48L93.8876 482H92.3076L88.0476 472.48V482H85.7676V468.1H88.2276L93.1076 479L97.9676 468.1H100.408ZM113.504 476.22C113.504 476.633 113.478 477.007 113.424 477.34H105.004C105.071 478.22 105.398 478.927 105.984 479.46C106.571 479.993 107.291 480.26 108.144 480.26C109.371 480.26 110.238 479.747 110.744 478.72H113.204C112.871 479.733 112.264 480.567 111.384 481.22C110.518 481.86 109.438 482.18 108.144 482.18C107.091 482.18 106.144 481.947 105.304 481.48C104.478 481 103.824 480.333 103.344 479.48C102.878 478.613 102.644 477.613 102.644 476.48C102.644 475.347 102.871 474.353 103.324 473.5C103.791 472.633 104.438 471.967 105.264 471.5C106.104 471.033 107.064 470.8 108.144 470.8C109.184 470.8 110.111 471.027 110.924 471.48C111.738 471.933 112.371 472.573 112.824 473.4C113.278 474.213 113.504 475.153 113.504 476.22ZM111.124 475.5C111.111 474.66 110.811 473.987 110.224 473.48C109.638 472.973 108.911 472.72 108.044 472.72C107.258 472.72 106.584 472.973 106.024 473.48C105.464 473.973 105.131 474.647 105.024 475.5H111.124ZM119.748 482.18C118.881 482.18 118.101 482.027 117.408 481.72C116.728 481.4 116.188 480.973 115.788 480.44C115.388 479.893 115.175 479.287 115.148 478.62H117.508C117.548 479.087 117.768 479.48 118.168 479.8C118.581 480.107 119.095 480.26 119.708 480.26C120.348 480.26 120.841 480.14 121.188 479.9C121.548 479.647 121.728 479.327 121.728 478.94C121.728 478.527 121.528 478.22 121.128 478.02C120.741 477.82 120.121 477.6 119.268 477.36C118.441 477.133 117.768 476.913 117.248 476.7C116.728 476.487 116.275 476.16 115.888 475.72C115.515 475.28 115.328 474.7 115.328 473.98C115.328 473.393 115.501 472.86 115.848 472.38C116.195 471.887 116.688 471.5 117.328 471.22C117.981 470.94 118.728 470.8 119.568 470.8C120.821 470.8 121.828 471.12 122.588 471.76C123.361 472.387 123.775 473.247 123.828 474.34H121.548C121.508 473.847 121.308 473.453 120.948 473.16C120.588 472.867 120.101 472.72 119.488 472.72C118.888 472.72 118.428 472.833 118.108 473.06C117.788 473.287 117.628 473.587 117.628 473.96C117.628 474.253 117.735 474.5 117.948 474.7C118.161 474.9 118.421 475.06 118.728 475.18C119.035 475.287 119.488 475.427 120.088 475.6C120.888 475.813 121.541 476.033 122.048 476.26C122.568 476.473 123.015 476.793 123.388 477.22C123.761 477.647 123.955 478.213 123.968 478.92C123.968 479.547 123.795 480.107 123.448 480.6C123.101 481.093 122.608 481.48 121.968 481.76C121.341 482.04 120.601 482.18 119.748 482.18ZM130.432 482.18C129.565 482.18 128.785 482.027 128.092 481.72C127.412 481.4 126.872 480.973 126.472 480.44C126.072 479.893 125.858 479.287 125.832 478.62H128.192C128.232 479.087 128.452 479.48 128.852 479.8C129.265 480.107 129.778 480.26 130.392 480.26C131.032 480.26 131.525 480.14 131.872 479.9C132.232 479.647 132.412 479.327 132.412 478.94C132.412 478.527 132.212 478.22 131.812 478.02C131.425 477.82 130.805 477.6 129.952 477.36C129.125 477.133 128.452 476.913 127.932 476.7C127.412 476.487 126.958 476.16 126.572 475.72C126.198 475.28 126.012 474.7 126.012 473.98C126.012 473.393 126.185 472.86 126.532 472.38C126.878 471.887 127.372 471.5 128.012 471.22C128.665 470.94 129.412 470.8 130.252 470.8C131.505 470.8 132.512 471.12 133.272 471.76C134.045 472.387 134.458 473.247 134.512 474.34H132.232C132.192 473.847 131.992 473.453 131.632 473.16C131.272 472.867 130.785 472.72 130.172 472.72C129.572 472.72 129.112 472.833 128.792 473.06C128.472 473.287 128.312 473.587 128.312 473.96C128.312 474.253 128.418 474.5 128.632 474.7C128.845 474.9 129.105 475.06 129.412 475.18C129.718 475.287 130.172 475.427 130.772 475.6C131.572 475.813 132.225 476.033 132.732 476.26C133.252 476.473 133.698 476.793 134.072 477.22C134.445 477.647 134.638 478.213 134.652 478.92C134.652 479.547 134.478 480.107 134.132 480.6C133.785 481.093 133.292 481.48 132.652 481.76C132.025 482.04 131.285 482.18 130.432 482.18ZM136.355 476.44C136.355 475.333 136.582 474.353 137.035 473.5C137.502 472.647 138.129 471.987 138.915 471.52C139.715 471.04 140.595 470.8 141.555 470.8C142.422 470.8 143.175 470.973 143.815 471.32C144.469 471.653 144.989 472.073 145.375 472.58V470.98H147.675V482H145.375V480.36C144.989 480.88 144.462 481.313 143.795 481.66C143.129 482.007 142.369 482.18 141.515 482.18C140.569 482.18 139.702 481.94 138.915 481.46C138.129 480.967 137.502 480.287 137.035 479.42C136.582 478.54 136.355 477.547 136.355 476.44ZM145.375 476.48C145.375 475.72 145.215 475.06 144.895 474.5C144.589 473.94 144.182 473.513 143.675 473.22C143.169 472.927 142.622 472.78 142.035 472.78C141.449 472.78 140.902 472.927 140.395 473.22C139.889 473.5 139.475 473.92 139.155 474.48C138.849 475.027 138.695 475.68 138.695 476.44C138.695 477.2 138.849 477.867 139.155 478.44C139.475 479.013 139.889 479.453 140.395 479.76C140.915 480.053 141.462 480.2 142.035 480.2C142.622 480.2 143.169 480.053 143.675 479.76C144.182 479.467 144.589 479.04 144.895 478.48C145.215 477.907 145.375 477.24 145.375 476.48ZM156.23 470.8C157.097 470.8 157.87 470.98 158.55 471.34C159.243 471.7 159.783 472.233 160.17 472.94C160.557 473.647 160.75 474.5 160.75 475.5V482H158.49V475.84C158.49 474.853 158.243 474.1 157.75 473.58C157.257 473.047 156.583 472.78 155.73 472.78C154.877 472.78 154.197 473.047 153.69 473.58C153.197 474.1 152.95 474.853 152.95 475.84V482H150.67V470.98H152.95V472.24C153.323 471.787 153.797 471.433 154.37 471.18C154.957 470.927 155.577 470.8 156.23 470.8ZM168.098 470.8C168.952 470.8 169.705 470.973 170.358 471.32C171.025 471.653 171.545 472.073 171.918 472.58V470.98H174.218V482.18C174.218 483.193 174.005 484.093 173.578 484.88C173.152 485.68 172.532 486.307 171.718 486.76C170.918 487.213 169.958 487.44 168.838 487.44C167.345 487.44 166.105 487.087 165.118 486.38C164.132 485.687 163.572 484.74 163.438 483.54H165.698C165.872 484.113 166.238 484.573 166.798 484.92C167.372 485.28 168.052 485.46 168.838 485.46C169.758 485.46 170.498 485.18 171.058 484.62C171.632 484.06 171.918 483.247 171.918 482.18V480.34C171.532 480.86 171.005 481.3 170.338 481.66C169.685 482.007 168.938 482.18 168.098 482.18C167.138 482.18 166.258 481.94 165.458 481.46C164.672 480.967 164.045 480.287 163.578 479.42C163.125 478.54 162.898 477.547 162.898 476.44C162.898 475.333 163.125 474.353 163.578 473.5C164.045 472.647 164.672 471.987 165.458 471.52C166.258 471.04 167.138 470.8 168.098 470.8ZM171.918 476.48C171.918 475.72 171.758 475.06 171.438 474.5C171.132 473.94 170.725 473.513 170.218 473.22C169.712 472.927 169.165 472.78 168.578 472.78C167.992 472.78 167.445 472.927 166.938 473.22C166.432 473.5 166.018 473.92 165.698 474.48C165.392 475.027 165.238 475.68 165.238 476.44C165.238 477.2 165.392 477.867 165.698 478.44C166.018 479.013 166.432 479.453 166.938 479.76C167.458 480.053 168.005 480.2 168.578 480.2C169.165 480.2 169.712 480.053 170.218 479.76C170.725 479.467 171.132 479.04 171.438 478.48C171.758 477.907 171.918 477.24 171.918 476.48ZM187.313 476.22C187.313 476.633 187.286 477.007 187.233 477.34H178.813C178.88 478.22 179.206 478.927 179.793 479.46C180.38 479.993 181.1 480.26 181.953 480.26C183.18 480.26 184.046 479.747 184.553 478.72H187.013C186.68 479.733 186.073 480.567 185.193 481.22C184.326 481.86 183.246 482.18 181.953 482.18C180.9 482.18 179.953 481.947 179.113 481.48C178.286 481 177.633 480.333 177.153 479.48C176.686 478.613 176.453 477.613 176.453 476.48C176.453 475.347 176.68 474.353 177.133 473.5C177.6 472.633 178.246 471.967 179.073 471.5C179.913 471.033 180.873 470.8 181.953 470.8C182.993 470.8 183.92 471.027 184.733 471.48C185.546 471.933 186.18 472.573 186.633 473.4C187.086 474.213 187.313 475.153 187.313 476.22ZM184.933 475.5C184.92 474.66 184.62 473.987 184.033 473.48C183.446 472.973 182.72 472.72 181.853 472.72C181.066 472.72 180.393 472.973 179.833 473.48C179.273 473.973 178.94 474.647 178.833 475.5H184.933ZM191.837 472.58C192.17 472.02 192.61 471.587 193.157 471.28C193.717 470.96 194.377 470.8 195.137 470.8V473.16H194.557C193.663 473.16 192.983 473.387 192.517 473.84C192.063 474.293 191.837 475.08 191.837 476.2V482H189.557V470.98H191.837V472.58Z" fill="black"/>
</g>
<rect width="284" height="66" transform="translate(30 535)" fill="white"/>
<g clip-path="url(#clip14_82_37)">
<rect width="147" height="36" transform="translate(30 550)" fill="white"/>
<path d="M50 579.25V576.75C50 575.424 49.4732 574.152 48.5355 573.214C47.5979 572.277 46.3261 571.75 45 571.75H37.5C36.1739 571.75 34.9021 572.277 33.9645 573.214C33.0268 574.152 32.5 575.424 32.5 576.75V579.25M50 556.91C51.0722 557.188 52.0217 557.814 52.6996 558.69C53.3775 559.566 53.7452 560.642 53.7452 561.75C53.7452 562.858 53.3775 563.934 52.6996 564.81C52.0217 565.686 51.0722 566.312 50 566.59M57.5 579.25V576.75C57.4992 575.642 57.1304 574.566 56.4517 573.69C55.773 572.815 54.8227 572.189 53.75 571.913M46.25 561.75C46.25 564.511 44.0114 566.75 41.25 566.75C38.4886 566.75 36.25 564.511 36.25 561.75C36.25 558.989 38.4886 556.75 41.25 556.75C44.0114 556.75 46.25 558.989 46.25 561.75Z" stroke="black" stroke-width="2.5" stroke-linecap="round" stroke-linejoin="round"/>
<path d="M71.0794 569.376C71.0794 568.016 71.3514 566.824 71.8954 565.8C72.4554 564.76 73.2234 563.96 74.1994 563.4C75.1754 562.84 76.2954 562.56 77.5594 562.56C79.1594 562.56 80.4794 562.944 81.5194 563.712C82.5754 564.464 83.2874 565.544 83.6554 566.952H80.7034C80.4634 566.296 80.0794 565.784 79.5514 565.416C79.0234 565.048 78.3594 564.864 77.5594 564.864C76.4394 564.864 75.5434 565.264 74.8714 566.064C74.2154 566.848 73.8874 567.952 73.8874 569.376C73.8874 570.8 74.2154 571.912 74.8714 572.712C75.5434 573.512 76.4394 573.912 77.5594 573.912C79.1434 573.912 80.1914 573.216 80.7034 571.824H83.6554C83.2714 573.168 82.5514 574.24 81.4954 575.04C80.4394 575.824 79.1274 576.216 77.5594 576.216C76.2954 576.216 75.1754 575.936 74.1994 575.376C73.2234 574.8 72.4554 574 71.8954 572.976C71.3514 571.936 71.0794 570.736 71.0794 569.376ZM92.118 576.216C90.87 576.216 89.742 575.936 88.734 575.376C87.726 574.8 86.934 574 86.358 572.976C85.782 571.936 85.494 570.736 85.494 569.376C85.494 568.032 85.79 566.84 86.382 565.8C86.974 564.76 87.782 563.96 88.806 563.4C89.83 562.84 90.974 562.56 92.238 562.56C93.502 562.56 94.646 562.84 95.67 563.4C96.694 563.96 97.502 564.76 98.094 565.8C98.686 566.84 98.982 568.032 98.982 569.376C98.982 570.72 98.678 571.912 98.07 572.952C97.462 573.992 96.63 574.8 95.574 575.376C94.534 575.936 93.382 576.216 92.118 576.216ZM92.118 573.84C92.822 573.84 93.478 573.672 94.086 573.336C94.71 573 95.214 572.496 95.598 571.824C95.982 571.152 96.174 570.336 96.174 569.376C96.174 568.416 95.99 567.608 95.622 566.952C95.254 566.28 94.766 565.776 94.158 565.44C93.55 565.104 92.894 564.936 92.19 564.936C91.486 564.936 90.83 565.104 90.222 565.44C89.63 565.776 89.158 566.28 88.806 566.952C88.454 567.608 88.278 568.416 88.278 569.376C88.278 570.8 88.638 571.904 89.358 572.688C90.094 573.456 91.014 573.84 92.118 573.84ZM108.359 562.56C109.399 562.56 110.327 562.776 111.143 563.208C111.975 563.64 112.623 564.28 113.087 565.128C113.551 565.976 113.783 567 113.783 568.2V576H111.071V568.608C111.071 567.424 110.775 566.52 110.183 565.896C109.591 565.256 108.783 564.936 107.759 564.936C106.735 564.936 105.919 565.256 105.311 565.896C104.719 566.52 104.423 567.424 104.423 568.608V576H101.687V562.776H104.423V564.288C104.871 563.744 105.439 563.32 106.127 563.016C106.831 562.712 107.575 562.56 108.359 562.56ZM120.465 565.008V572.328C120.465 572.824 120.577 573.184 120.801 573.408C121.041 573.616 121.441 573.72 122.001 573.72H123.681V576H121.521C120.289 576 119.345 575.712 118.689 575.136C118.033 574.56 117.705 573.624 117.705 572.328V565.008H116.145V562.776H117.705V559.488H120.465V562.776H123.681V565.008H120.465ZM125.29 569.328C125.29 568 125.562 566.824 126.106 565.8C126.666 564.776 127.418 563.984 128.362 563.424C129.322 562.848 130.378 562.56 131.53 562.56C132.57 562.56 133.474 562.768 134.242 563.184C135.026 563.584 135.65 564.088 136.114 564.696V562.776H138.874V576H136.114V574.032C135.65 574.656 135.018 575.176 134.218 575.592C133.418 576.008 132.506 576.216 131.482 576.216C130.346 576.216 129.306 575.928 128.362 575.352C127.418 574.76 126.666 573.944 126.106 572.904C125.562 571.848 125.29 570.656 125.29 569.328ZM136.114 569.376C136.114 568.464 135.922 567.672 135.538 567C135.17 566.328 134.682 565.816 134.074 565.464C133.466 565.112 132.81 564.936 132.106 564.936C131.402 564.936 130.746 565.112 130.138 565.464C129.53 565.8 129.034 566.304 128.65 566.976C128.282 567.632 128.098 568.416 128.098 569.328C128.098 570.24 128.282 571.04 128.65 571.728C129.034 572.416 129.53 572.944 130.138 573.312C130.762 573.664 131.418 573.84 132.106 573.84C132.81 573.84 133.466 573.664 134.074 573.312C134.682 572.96 135.17 572.448 135.538 571.776C135.922 571.088 136.114 570.288 136.114 569.376ZM141.556 569.376C141.556 568.016 141.828 566.824 142.372 565.8C142.932 564.76 143.7 563.96 144.676 563.4C145.652 562.84 146.772 562.56 148.036 562.56C149.636 562.56 150.956 562.944 151.996 563.712C153.052 564.464 153.764 565.544 154.132 566.952H151.18C150.94 566.296 150.556 565.784 150.028 565.416C149.5 565.048 148.836 564.864 148.036 564.864C146.916 564.864 146.02 565.264 145.348 566.064C144.692 566.848 144.364 567.952 144.364 569.376C144.364 570.8 144.692 571.912 145.348 572.712C146.02 573.512 146.916 573.912 148.036 573.912C149.62 573.912 150.668 573.216 151.18 571.824H154.132C153.748 573.168 153.028 574.24 151.972 575.04C150.916 575.824 149.604 576.216 148.036 576.216C146.772 576.216 145.652 575.936 144.676 575.376C143.7 574.8 142.932 574 142.372 572.976C141.828 571.936 141.556 570.736 141.556 569.376ZM160.051 565.008V572.328C160.051 572.824 160.163 573.184 160.387 573.408C160.627 573.616 161.027 573.72 161.587 573.72H163.267V576H161.107C159.875 576 158.931 575.712 158.275 575.136C157.619 574.56 157.291 573.624 157.291 572.328V565.008H155.731V562.776H157.291V559.488H160.051V562.776H163.267V565.008H160.051ZM170.588 576.216C169.548 576.216 168.612 576.032 167.78 575.664C166.964 575.28 166.316 574.768 165.836 574.128C165.356 573.472 165.1 572.744 165.068 571.944H167.9C167.948 572.504 168.212 572.976 168.692 573.36C169.188 573.728 169.804 573.912 170.54 573.912C171.308 573.912 171.9 573.768 172.316 573.48C172.748 573.176 172.964 572.792 172.964 572.328C172.964 571.832 172.724 571.464 172.244 571.224C171.78 570.984 171.036 570.72 170.012 570.432C169.02 570.16 168.212 569.896 167.588 569.64C166.964 569.384 166.42 568.992 165.956 568.464C165.508 567.936 165.284 567.24 165.284 566.376C165.284 565.672 165.492 565.032 165.908 564.456C166.324 563.864 166.916 563.4 167.684 563.064C168.468 562.728 169.364 562.56 170.372 562.56C171.876 562.56 173.084 562.944 173.996 563.712C174.924 564.464 175.42 565.496 175.484 566.808H172.748C172.7 566.216 172.46 565.744 172.028 565.392C171.596 565.04 171.012 564.864 170.276 564.864C169.556 564.864 169.004 565 168.62 565.272C168.236 565.544 168.044 565.904 168.044 566.352C168.044 566.704 168.172 567 168.428 567.24C168.684 567.48 168.996 567.672 169.364 567.816C169.732 567.944 170.276 568.112 170.996 568.32C171.956 568.576 172.74 568.84 173.348 569.112C173.972 569.368 174.508 569.752 174.956 570.264C175.404 570.776 175.636 571.456 175.652 572.304C175.652 573.056 175.444 573.728 175.028 574.32C174.612 574.912 174.02 575.376 173.252 575.712C172.5 576.048 171.612 576.216 170.588 576.216Z" fill="black"/>
</g>
<rect width="284" height="66" transform="translate(30 611)" fill="white"/>
<g clip-path="url(#clip15_82_37)">
<rect width="166" height="36" transform="translate(30 626)" fill="white"/>
<path d="M43.6417 645.356C43.4028 645.118 43.1181 644.93 42.8048 644.805L32.8923 640.83C32.7739 640.782 32.6729 640.7 32.6028 640.593C32.5327 640.487 32.4969 640.361 32.5002 640.234C32.5035 640.106 32.5457 639.983 32.6211 639.88C32.6965 639.777 32.8016 639.7 32.9223 639.659L56.6723 631.534C56.783 631.494 56.9029 631.486 57.0178 631.512C57.1328 631.537 57.238 631.595 57.3213 631.678C57.4046 631.762 57.4624 631.867 57.488 631.982C57.5136 632.097 57.506 632.217 57.466 632.327L49.341 656.077C49.2996 656.198 49.2224 656.303 49.1195 656.379C49.0167 656.454 48.8933 656.496 48.7658 656.499C48.6383 656.503 48.5129 656.467 48.4063 656.397C48.2998 656.327 48.2172 656.226 48.1698 656.107L44.1948 646.192C44.0687 645.879 43.8806 645.595 43.6417 645.356ZM43.6417 645.356L57.3173 631.684" stroke="black" stroke-width="2.5" stroke-linecap="round" stroke-linejoin="round"/>
<path d="M74.6766 640.744C75.1406 640.104 75.7726 639.584 76.5726 639.184C77.3886 638.768 78.2926 638.56 79.2846 638.56C80.4526 638.56 81.5086 638.84 82.4526 639.4C83.3966 639.96 84.1406 640.76 84.6846 641.8C85.2286 642.824 85.5006 644 85.5006 645.328C85.5006 646.656 85.2286 647.848 84.6846 648.904C84.1406 649.944 83.3886 650.76 82.4286 651.352C81.4846 651.928 80.4366 652.216 79.2846 652.216C78.2606 652.216 77.3486 652.016 76.5486 651.616C75.7646 651.216 75.1406 650.704 74.6766 650.08V652H71.9406V634.24H74.6766V640.744ZM82.7166 645.328C82.7166 644.416 82.5246 643.632 82.1406 642.976C81.7726 642.304 81.2766 641.8 80.6526 641.464C80.0446 641.112 79.3886 640.936 78.6846 640.936C77.9966 640.936 77.3406 641.112 76.7166 641.464C76.1086 641.816 75.6126 642.328 75.2286 643C74.8606 643.672 74.6766 644.464 74.6766 645.376C74.6766 646.288 74.8606 647.088 75.2286 647.776C75.6126 648.448 76.1086 648.96 76.7166 649.312C77.3406 649.664 77.9966 649.84 78.6846 649.84C79.3886 649.84 80.0446 649.664 80.6526 649.312C81.2766 648.944 81.7726 648.416 82.1406 647.728C82.5246 647.04 82.7166 646.24 82.7166 645.328ZM90.9423 640.696C91.3423 640.024 91.8703 639.504 92.5263 639.136C93.1983 638.752 93.9903 638.56 94.9023 638.56V641.392H94.2063C93.1343 641.392 92.3183 641.664 91.7583 642.208C91.2143 642.752 90.9423 643.696 90.9423 645.04V652H88.2063V638.776H90.9423V640.696ZM103.153 652.216C101.905 652.216 100.777 651.936 99.7692 651.376C98.7612 650.8 97.9692 650 97.3932 648.976C96.8172 647.936 96.5292 646.736 96.5292 645.376C96.5292 644.032 96.8252 642.84 97.4172 641.8C98.0092 640.76 98.8172 639.96 99.8412 639.4C100.865 638.84 102.009 638.56 103.273 638.56C104.537 638.56 105.681 638.84 106.705 639.4C107.729 639.96 108.537 640.76 109.129 641.8C109.721 642.84 110.017 644.032 110.017 645.376C110.017 646.72 109.713 647.912 109.105 648.952C108.497 649.992 107.665 650.8 106.609 651.376C105.569 651.936 104.417 652.216 103.153 652.216ZM103.153 649.84C103.857 649.84 104.513 649.672 105.121 649.336C105.745 649 106.249 648.496 106.633 647.824C107.017 647.152 107.209 646.336 107.209 645.376C107.209 644.416 107.025 643.608 106.657 642.952C106.289 642.28 105.801 641.776 105.193 641.44C104.585 641.104 103.929 640.936 103.225 640.936C102.521 640.936 101.865 641.104 101.257 641.44C100.665 641.776 100.193 642.28 99.8412 642.952C99.4892 643.608 99.3132 644.416 99.3132 645.376C99.3132 646.8 99.6732 647.904 100.393 648.688C101.129 649.456 102.049 649.84 103.153 649.84ZM111.81 645.328C111.81 644 112.082 642.824 112.626 641.8C113.186 640.776 113.938 639.984 114.882 639.424C115.842 638.848 116.898 638.56 118.05 638.56C119.09 638.56 119.994 638.768 120.762 639.184C121.546 639.584 122.17 640.088 122.634 640.696V638.776H125.394V652H122.634V650.032C122.17 650.656 121.538 651.176 120.738 651.592C119.938 652.008 119.026 652.216 118.002 652.216C116.866 652.216 115.826 651.928 114.882 651.352C113.938 650.76 113.186 649.944 112.626 648.904C112.082 647.848 111.81 646.656 111.81 645.328ZM122.634 645.376C122.634 644.464 122.442 643.672 122.058 643C121.69 642.328 121.202 641.816 120.594 641.464C119.986 641.112 119.33 640.936 118.626 640.936C117.922 640.936 117.266 641.112 116.658 641.464C116.05 641.8 115.554 642.304 115.17 642.976C114.802 643.632 114.618 644.416 114.618 645.328C114.618 646.24 114.802 647.04 115.17 647.728C115.554 648.416 116.05 648.944 116.658 649.312C117.282 649.664 117.938 649.84 118.626 649.84C119.33 649.84 119.986 649.664 120.594 649.312C121.202 648.96 121.69 648.448 122.058 647.776C122.442 647.088 122.634 646.288 122.634 645.376ZM128.076 645.328C128.076 644 128.348 642.824 128.892 641.8C129.452 640.776 130.204 639.984 131.148 639.424C132.108 638.848 133.172 638.56 134.34 638.56C135.204 638.56 136.052 638.752 136.884 639.136C137.732 639.504 138.404 640 138.9 640.624V634.24H141.66V652H138.9V650.008C138.452 650.648 137.828 651.176 137.028 651.592C136.244 652.008 135.34 652.216 134.316 652.216C133.164 652.216 132.108 651.928 131.148 651.352C130.204 650.76 129.452 649.944 128.892 648.904C128.348 647.848 128.076 646.656 128.076 645.328ZM138.9 645.376C138.9 644.464 138.708 643.672 138.324 643C137.956 642.328 137.468 641.816 136.86 641.464C136.252 641.112 135.596 640.936 134.892 640.936C134.188 640.936 133.532 641.112 132.924 641.464C132.316 641.8 131.82 642.304 131.436 642.976C131.068 643.632 130.884 644.416 130.884 645.328C130.884 646.24 131.068 647.04 131.436 647.728C131.82 648.416 132.316 648.944 132.924 649.312C133.548 649.664 134.204 649.84 134.892 649.84C135.596 649.84 136.252 649.664 136.86 649.312C137.468 648.96 137.956 648.448 138.324 647.776C138.708 647.088 138.9 646.288 138.9 645.376ZM144.341 645.376C144.341 644.016 144.613 642.824 145.157 641.8C145.717 640.76 146.485 639.96 147.461 639.4C148.437 638.84 149.557 638.56 150.821 638.56C152.421 638.56 153.741 638.944 154.781 639.712C155.837 640.464 156.549 641.544 156.917 642.952H153.965C153.725 642.296 153.341 641.784 152.813 641.416C152.285 641.048 151.621 640.864 150.821 640.864C149.701 640.864 148.805 641.264 148.133 642.064C147.477 642.848 147.149 643.952 147.149 645.376C147.149 646.8 147.477 647.912 148.133 648.712C148.805 649.512 149.701 649.912 150.821 649.912C152.405 649.912 153.453 649.216 153.965 647.824H156.917C156.533 649.168 155.813 650.24 154.757 651.04C153.701 651.824 152.389 652.216 150.821 652.216C149.557 652.216 148.437 651.936 147.461 651.376C146.485 650.8 145.717 650 145.157 648.976C144.613 647.936 144.341 646.736 144.341 645.376ZM158.732 645.328C158.732 644 159.004 642.824 159.548 641.8C160.108 640.776 160.86 639.984 161.804 639.424C162.764 638.848 163.82 638.56 164.972 638.56C166.012 638.56 166.916 638.768 167.684 639.184C168.468 639.584 169.092 640.088 169.556 640.696V638.776H172.316V652H169.556V650.032C169.092 650.656 168.46 651.176 167.66 651.592C166.86 652.008 165.948 652.216 164.924 652.216C163.788 652.216 162.748 651.928 161.804 651.352C160.86 650.76 160.108 649.944 159.548 648.904C159.004 647.848 158.732 646.656 158.732 645.328ZM169.556 645.376C169.556 644.464 169.364 643.672 168.98 643C168.612 642.328 168.124 641.816 167.516 641.464C166.908 641.112 166.252 640.936 165.548 640.936C164.844 640.936 164.188 641.112 163.58 641.464C162.972 641.8 162.476 642.304 162.092 642.976C161.724 643.632 161.54 644.416 161.54 645.328C161.54 646.24 161.724 647.04 162.092 647.728C162.476 648.416 162.972 648.944 163.58 649.312C164.204 649.664 164.86 649.84 165.548 649.84C166.252 649.84 166.908 649.664 167.516 649.312C168.124 648.96 168.612 648.448 168.98 647.776C169.364 647.088 169.556 646.288 169.556 645.376ZM180.709 652.216C179.669 652.216 178.733 652.032 177.901 651.664C177.085 651.28 176.437 650.768 175.957 650.128C175.477 649.472 175.221 648.744 175.189 647.944H178.021C178.069 648.504 178.333 648.976 178.813 649.36C179.309 649.728 179.925 649.912 180.661 649.912C181.429 649.912 182.021 649.768 182.437 649.48C182.869 649.176 183.085 648.792 183.085 648.328C183.085 647.832 182.845 647.464 182.365 647.224C181.901 646.984 181.157 646.72 180.133 646.432C179.141 646.16 178.333 645.896 177.709 645.64C177.085 645.384 176.541 644.992 176.077 644.464C175.629 643.936 175.405 643.24 175.405 642.376C175.405 641.672 175.613 641.032 176.029 640.456C176.445 639.864 177.037 639.4 177.805 639.064C178.589 638.728 179.485 638.56 180.493 638.56C181.997 638.56 183.205 638.944 184.117 639.712C185.045 640.464 185.541 641.496 185.605 642.808H182.869C182.821 642.216 182.581 641.744 182.149 641.392C181.717 641.04 181.133 640.864 180.397 640.864C179.677 640.864 179.125 641 178.741 641.272C178.357 641.544 178.165 641.904 178.165 642.352C178.165 642.704 178.293 643 178.549 643.24C178.805 643.48 179.117 643.672 179.485 643.816C179.853 643.944 180.397 644.112 181.117 644.32C182.077 644.576 182.861 644.84 183.469 645.112C184.093 645.368 184.629 645.752 185.077 646.264C185.525 646.776 185.757 647.456 185.773 648.304C185.773 649.056 185.565 649.728 185.149 650.32C184.733 650.912 184.141 651.376 183.373 651.712C182.621 652.048 181.733 652.216 180.709 652.216ZM191.922 641.008V648.328C191.922 648.824 192.034 649.184 192.258 649.408C192.498 649.616 192.898 649.72 193.458 649.72H195.138V652H192.978C191.746 652 190.802 651.712 190.146 651.136C189.49 650.56 189.162 649.624 189.162 648.328V641.008H187.602V638.776H189.162V635.488H191.922V638.776H195.138V641.008H191.922Z" fill="black"/>
</g>
<rect width="284" height="66" transform="translate(30 687)" fill="white"/>
<g clip-path="url(#clip16_82_37)">
<rect width="152" height="36" transform="translate(30 702)" fill="white"/>
<path d="M42.5 732.5V713.75C42.5 713.418 42.3683 713.101 42.1339 712.866C41.8995 712.632 41.5815 712.5 41.25 712.5H35C34.337 712.5 33.7011 712.763 33.2322 713.232C32.7634 713.701 32.5 714.337 32.5 715V730C32.5 730.663 32.7634 731.299 33.2322 731.768C33.7011 732.237 34.337 732.5 35 732.5H50C50.663 732.5 51.2989 732.237 51.7678 731.768C52.2366 731.299 52.5 730.663 52.5 730V723.75C52.5 723.418 52.3683 723.101 52.1339 722.866C51.8995 722.632 51.5815 722.5 51.25 722.5H32.5M48.75 707.5H56.25C56.9404 707.5 57.5 708.06 57.5 708.75V716.25C57.5 716.94 56.9404 717.5 56.25 717.5H48.75C48.0596 717.5 47.5 716.94 47.5 716.25V708.75C47.5 708.06 48.0596 707.5 48.75 707.5Z" stroke="black" stroke-width="2.5" stroke-linecap="round" stroke-linejoin="round"/>
<path d="M71.2005 721.376C71.2005 720.016 71.4725 718.824 72.0165 717.8C72.5765 716.76 73.3445 715.96 74.3205 715.4C75.2965 714.84 76.4165 714.56 77.6805 714.56C79.2805 714.56 80.6005 714.944 81.6405 715.712C82.6965 716.464 83.4085 717.544 83.7765 718.952H80.8245C80.5845 718.296 80.2005 717.784 79.6725 717.416C79.1445 717.048 78.4805 716.864 77.6805 716.864C76.5605 716.864 75.6645 717.264 74.9925 718.064C74.3365 718.848 74.0085 719.952 74.0085 721.376C74.0085 722.8 74.3365 723.912 74.9925 724.712C75.6645 725.512 76.5605 725.912 77.6805 725.912C79.2645 725.912 80.3125 725.216 80.8245 723.824H83.7765C83.3925 725.168 82.6725 726.24 81.6165 727.04C80.5605 727.824 79.2485 728.216 77.6805 728.216C76.4165 728.216 75.2965 727.936 74.3205 727.376C73.3445 726.8 72.5765 726 72.0165 724.976C71.4725 723.936 71.2005 722.736 71.2005 721.376ZM93.3431 714.56C94.3511 714.56 95.2471 714.776 96.0311 715.208C96.8311 715.64 97.4551 716.28 97.9031 717.128C98.3671 717.976 98.5991 719 98.5991 720.2V728H95.8871V720.608C95.8871 719.424 95.5911 718.52 94.9991 717.896C94.4071 717.256 93.5991 716.936 92.5751 716.936C91.5511 716.936 90.7351 717.256 90.1271 717.896C89.5351 718.52 89.2391 719.424 89.2391 720.608V728H86.5031V710.24H89.2391V716.312C89.7031 715.752 90.2871 715.32 90.9911 715.016C91.7111 714.712 92.4951 714.56 93.3431 714.56ZM101.177 721.328C101.177 720 101.449 718.824 101.993 717.8C102.553 716.776 103.305 715.984 104.249 715.424C105.209 714.848 106.265 714.56 107.417 714.56C108.457 714.56 109.361 714.768 110.129 715.184C110.913 715.584 111.537 716.088 112.001 716.696V714.776H114.761V728H112.001V726.032C111.537 726.656 110.905 727.176 110.105 727.592C109.305 728.008 108.393 728.216 107.369 728.216C106.233 728.216 105.193 727.928 104.249 727.352C103.305 726.76 102.553 725.944 101.993 724.904C101.449 723.848 101.177 722.656 101.177 721.328ZM112.001 721.376C112.001 720.464 111.809 719.672 111.425 719C111.057 718.328 110.569 717.816 109.961 717.464C109.353 717.112 108.697 716.936 107.993 716.936C107.289 716.936 106.633 717.112 106.025 717.464C105.417 717.8 104.921 718.304 104.537 718.976C104.169 719.632 103.985 720.416 103.985 721.328C103.985 722.24 104.169 723.04 104.537 723.728C104.921 724.416 105.417 724.944 106.025 725.312C106.649 725.664 107.305 725.84 107.993 725.84C108.697 725.84 109.353 725.664 109.961 725.312C110.569 724.96 111.057 724.448 111.425 723.776C111.809 723.088 112.001 722.288 112.001 721.376ZM125.027 714.56C126.067 714.56 126.995 714.776 127.811 715.208C128.643 715.64 129.291 716.28 129.755 717.128C130.219 717.976 130.451 719 130.451 720.2V728H127.739V720.608C127.739 719.424 127.443 718.52 126.851 717.896C126.259 717.256 125.451 716.936 124.427 716.936C123.403 716.936 122.587 717.256 121.979 717.896C121.387 718.52 121.091 719.424 121.091 720.608V728H118.355V714.776H121.091V716.288C121.539 715.744 122.107 715.32 122.795 715.016C123.499 714.712 124.243 714.56 125.027 714.56ZM140.613 714.56C141.653 714.56 142.581 714.776 143.397 715.208C144.229 715.64 144.877 716.28 145.341 717.128C145.805 717.976 146.037 719 146.037 720.2V728H143.325V720.608C143.325 719.424 143.029 718.52 142.437 717.896C141.845 717.256 141.037 716.936 140.013 716.936C138.989 716.936 138.173 717.256 137.565 717.896C136.973 718.52 136.677 719.424 136.677 720.608V728H133.941V714.776H136.677V716.288C137.125 715.744 137.693 715.32 138.381 715.016C139.085 714.712 139.829 714.56 140.613 714.56ZM161.647 721.064C161.647 721.56 161.615 722.008 161.551 722.408H151.447C151.527 723.464 151.919 724.312 152.623 724.952C153.327 725.592 154.191 725.912 155.215 725.912C156.687 725.912 157.727 725.296 158.335 724.064H161.287C160.887 725.28 160.159 726.28 159.103 727.064C158.063 727.832 156.767 728.216 155.215 728.216C153.951 728.216 152.815 727.936 151.807 727.376C150.815 726.8 150.031 726 149.455 724.976C148.895 723.936 148.615 722.736 148.615 721.376C148.615 720.016 148.887 718.824 149.431 717.8C149.991 716.76 150.767 715.96 151.759 715.4C152.767 714.84 153.919 714.56 155.215 714.56C156.463 714.56 157.575 714.832 158.551 715.376C159.527 715.92 160.287 716.688 160.831 717.68C161.375 718.656 161.647 719.784 161.647 721.064ZM158.791 720.2C158.775 719.192 158.415 718.384 157.711 717.776C157.007 717.168 156.135 716.864 155.095 716.864C154.151 716.864 153.343 717.168 152.671 717.776C151.999 718.368 151.599 719.176 151.471 720.2H158.791ZM167.075 710.24V728H164.339V710.24H167.075ZM175.467 728.216C174.427 728.216 173.491 728.032 172.659 727.664C171.843 727.28 171.195 726.768 170.715 726.128C170.235 725.472 169.979 724.744 169.947 723.944H172.779C172.827 724.504 173.091 724.976 173.571 725.36C174.067 725.728 174.683 725.912 175.419 725.912C176.187 725.912 176.779 725.768 177.195 725.48C177.627 725.176 177.843 724.792 177.843 724.328C177.843 723.832 177.603 723.464 177.123 723.224C176.659 722.984 175.915 722.72 174.891 722.432C173.899 722.16 173.091 721.896 172.467 721.64C171.843 721.384 171.299 720.992 170.835 720.464C170.387 719.936 170.163 719.24 170.163 718.376C170.163 717.672 170.371 717.032 170.787 716.456C171.203 715.864 171.795 715.4 172.563 715.064C173.347 714.728 174.243 714.56 175.251 714.56C176.755 714.56 177.963 714.944 178.875 715.712C179.803 716.464 180.299 717.496 180.363 718.808H177.627C177.579 718.216 177.339 717.744 176.907 717.392C176.475 717.04 175.891 716.864 175.155 716.864C174.435 716.864 173.883 717 173.499 717.272C173.115 717.544 172.923 717.904 172.923 718.352C172.923 718.704 173.051 719 173.307 719.24C173.563 719.48 173.875 719.672 174.243 719.816C174.611 719.944 175.155 720.112 175.875 720.32C176.835 720.576 177.619 720.84 178.227 721.112C178.851 721.368 179.387 721.752 179.835 722.264C180.283 722.776 180.515 723.456 180.531 724.304C180.531 725.056 180.323 725.728 179.907 726.32C179.491 726.912 178.899 727.376 178.131 727.712C177.379 728.048 176.491 728.216 175.467 728.216Z" fill="black"/>
</g>
<rect width="284" height="66" transform="translate(30 763)" fill="white"/>
<g clip-path="url(#clip17_82_37)">
<rect width="151" height="36" transform="translate(30 778)" fill="white"/>
<path d="M33.75 784.75V804.75C33.75 805.413 34.0134 806.049 34.4822 806.518C34.9511 806.987 35.587 807.25 36.25 807.25H56.25M53.75 792.25L47.5 798.5L42.5 793.5L38.75 797.25" stroke="black" stroke-width="2.5" stroke-linecap="round" stroke-linejoin="round"/>
<path d="M70.9466 797.328C70.9466 796 71.2186 794.824 71.7626 793.8C72.3226 792.776 73.0746 791.984 74.0186 791.424C74.9786 790.848 76.0346 790.56 77.1866 790.56C78.2266 790.56 79.1306 790.768 79.8986 791.184C80.6826 791.584 81.3066 792.088 81.7706 792.696V790.776H84.5306V804H81.7706V802.032C81.3066 802.656 80.6746 803.176 79.8746 803.592C79.0746 804.008 78.1626 804.216 77.1386 804.216C76.0026 804.216 74.9626 803.928 74.0186 803.352C73.0746 802.76 72.3226 801.944 71.7626 800.904C71.2186 799.848 70.9466 798.656 70.9466 797.328ZM81.7706 797.376C81.7706 796.464 81.5786 795.672 81.1946 795C80.8266 794.328 80.3386 793.816 79.7306 793.464C79.1226 793.112 78.4666 792.936 77.7626 792.936C77.0586 792.936 76.4026 793.112 75.7946 793.464C75.1866 793.8 74.6906 794.304 74.3066 794.976C73.9386 795.632 73.7546 796.416 73.7546 797.328C73.7546 798.24 73.9386 799.04 74.3066 799.728C74.6906 800.416 75.1866 800.944 75.7946 801.312C76.4186 801.664 77.0746 801.84 77.7626 801.84C78.4666 801.84 79.1226 801.664 79.7306 801.312C80.3386 800.96 80.8266 800.448 81.1946 799.776C81.5786 799.088 81.7706 798.288 81.7706 797.376ZM94.7962 790.56C95.8362 790.56 96.7642 790.776 97.5802 791.208C98.4122 791.64 99.0602 792.28 99.5242 793.128C99.9882 793.976 100.22 795 100.22 796.2V804H97.5082V796.608C97.5082 795.424 97.2122 794.52 96.6202 793.896C96.0282 793.256 95.2202 792.936 94.1962 792.936C93.1722 792.936 92.3562 793.256 91.7482 793.896C91.1562 794.52 90.8602 795.424 90.8602 796.608V804H88.1242V790.776H90.8602V792.288C91.3082 791.744 91.8762 791.32 92.5642 791.016C93.2682 790.712 94.0122 790.56 94.7962 790.56ZM102.798 797.328C102.798 796 103.07 794.824 103.614 793.8C104.174 792.776 104.926 791.984 105.87 791.424C106.83 790.848 107.886 790.56 109.038 790.56C110.078 790.56 110.982 790.768 111.75 791.184C112.534 791.584 113.158 792.088 113.622 792.696V790.776H116.382V804H113.622V802.032C113.158 802.656 112.526 803.176 111.726 803.592C110.926 804.008 110.014 804.216 108.99 804.216C107.854 804.216 106.814 803.928 105.87 803.352C104.926 802.76 104.174 801.944 103.614 800.904C103.07 799.848 102.798 798.656 102.798 797.328ZM113.622 797.376C113.622 796.464 113.43 795.672 113.046 795C112.678 794.328 112.19 793.816 111.582 793.464C110.974 793.112 110.318 792.936 109.614 792.936C108.91 792.936 108.254 793.112 107.646 793.464C107.038 793.8 106.542 794.304 106.158 794.976C105.79 795.632 105.606 796.416 105.606 797.328C105.606 798.24 105.79 799.04 106.158 799.728C106.542 800.416 107.038 800.944 107.646 801.312C108.27 801.664 108.926 801.84 109.614 801.84C110.318 801.84 110.974 801.664 111.582 801.312C112.19 800.96 112.678 800.448 113.046 799.776C113.43 799.088 113.622 798.288 113.622 797.376ZM122.712 786.24V804H119.976V786.24H122.712ZM138.208 790.776L130.096 810.216H127.264L129.952 803.784L124.744 790.776H127.792L131.512 800.856L135.376 790.776H138.208ZM143.465 793.008V800.328C143.465 800.824 143.577 801.184 143.801 801.408C144.041 801.616 144.441 801.72 145.001 801.72H146.681V804H144.521C143.289 804 142.345 803.712 141.689 803.136C141.033 802.56 140.705 801.624 140.705 800.328V793.008H139.145V790.776H140.705V787.488H143.465V790.776H146.681V793.008H143.465ZM150.594 789.024C150.098 789.024 149.682 788.856 149.346 788.52C149.01 788.184 148.842 787.768 148.842 787.272C148.842 786.776 149.01 786.36 149.346 786.024C149.682 785.688 150.098 785.52 150.594 785.52C151.074 785.52 151.482 785.688 151.818 786.024C152.154 786.36 152.322 786.776 152.322 787.272C152.322 787.768 152.154 788.184 151.818 788.52C151.482 788.856 151.074 789.024 150.594 789.024ZM151.938 790.776V804H149.202V790.776H151.938ZM154.618 797.376C154.618 796.016 154.89 794.824 155.434 793.8C155.994 792.76 156.762 791.96 157.738 791.4C158.714 790.84 159.834 790.56 161.098 790.56C162.698 790.56 164.018 790.944 165.058 791.712C166.114 792.464 166.826 793.544 167.194 794.952H164.242C164.002 794.296 163.618 793.784 163.09 793.416C162.562 793.048 161.898 792.864 161.098 792.864C159.978 792.864 159.082 793.264 158.41 794.064C157.754 794.848 157.426 795.952 157.426 797.376C157.426 798.8 157.754 799.912 158.41 800.712C159.082 801.512 159.978 801.912 161.098 801.912C162.682 801.912 163.73 801.216 164.242 799.824H167.194C166.81 801.168 166.09 802.24 165.034 803.04C163.978 803.824 162.666 804.216 161.098 804.216C159.834 804.216 158.714 803.936 157.738 803.376C156.762 802.8 155.994 802 155.434 800.976C154.89 799.936 154.618 798.736 154.618 797.376ZM174.721 804.216C173.681 804.216 172.745 804.032 171.913 803.664C171.097 803.28 170.449 802.768 169.969 802.128C169.489 801.472 169.233 800.744 169.201 799.944H172.033C172.081 800.504 172.345 800.976 172.825 801.36C173.321 801.728 173.937 801.912 174.673 801.912C175.441 801.912 176.033 801.768 176.449 801.48C176.881 801.176 177.097 800.792 177.097 800.328C177.097 799.832 176.857 799.464 176.377 799.224C175.913 798.984 175.169 798.72 174.145 798.432C173.153 798.16 172.345 797.896 171.721 797.64C171.097 797.384 170.553 796.992 170.089 796.464C169.641 795.936 169.417 795.24 169.417 794.376C169.417 793.672 169.625 793.032 170.041 792.456C170.457 791.864 171.049 791.4 171.817 791.064C172.601 790.728 173.497 790.56 174.505 790.56C176.009 790.56 177.217 790.944 178.129 791.712C179.057 792.464 179.553 793.496 179.617 794.808H176.881C176.833 794.216 176.593 793.744 176.161 793.392C175.729 793.04 175.145 792.864 174.409 792.864C173.689 792.864 173.137 793 172.753 793.272C172.369 793.544 172.177 793.904 172.177 794.352C172.177 794.704 172.305 795 172.561 795.24C172.817 795.48 173.129 795.672 173.497 795.816C173.865 795.944 174.409 796.112 175.129 796.32C176.089 796.576 176.873 796.84 177.481 797.112C178.105 797.368 178.641 797.752 179.089 798.264C179.537 798.776 179.769 799.456 179.785 800.304C179.785 801.056 179.577 801.728 179.161 802.32C178.745 802.912 178.153 803.376 177.385 803.712C176.633 804.048 175.745 804.216 174.721 804.216Z" fill="black"/>
</g>
<rect width="284" height="66" transform="translate(30 839)" fill="white"/>
<g clip-path="url(#clip18_82_37)">
<rect width="160" height="36" transform="translate(30 854)" fill="white"/>
<path d="M38.75 870.75V875.75C38.75 876.413 39.0134 877.049 39.4822 877.518C39.9511 877.987 40.587 878.25 41.25 878.25H46.25M36.25 860.75H41.25C42.6307 860.75 43.75 861.869 43.75 863.25V868.25C43.75 869.631 42.6307 870.75 41.25 870.75H36.25C34.8693 870.75 33.75 869.631 33.75 868.25V863.25C33.75 861.869 34.8693 860.75 36.25 860.75ZM48.75 873.25H53.75C55.1307 873.25 56.25 874.369 56.25 875.75V880.75C56.25 882.131 55.1307 883.25 53.75 883.25H48.75C47.3693 883.25 46.25 882.131 46.25 880.75V875.75C46.25 874.369 47.3693 873.25 48.75 873.25Z" stroke="black" stroke-width="2" stroke-linecap="round" stroke-linejoin="round"/>
<path d="M89.642 866.776L85.538 880H82.658L79.994 870.232L77.33 880H74.45L70.322 866.776H73.106L75.866 877.408L78.674 866.776H81.53L84.218 877.36L86.954 866.776H89.642ZM97.4227 880.216C96.1747 880.216 95.0467 879.936 94.0387 879.376C93.0307 878.8 92.2387 878 91.6627 876.976C91.0867 875.936 90.7987 874.736 90.7987 873.376C90.7987 872.032 91.0947 870.84 91.6867 869.8C92.2787 868.76 93.0867 867.96 94.1107 867.4C95.1347 866.84 96.2787 866.56 97.5427 866.56C98.8067 866.56 99.9507 866.84 100.975 867.4C101.999 867.96 102.807 868.76 103.399 869.8C103.991 870.84 104.287 872.032 104.287 873.376C104.287 874.72 103.983 875.912 103.375 876.952C102.767 877.992 101.935 878.8 100.879 879.376C99.8387 879.936 98.6867 880.216 97.4227 880.216ZM97.4227 877.84C98.1267 877.84 98.7827 877.672 99.3907 877.336C100.015 877 100.519 876.496 100.903 875.824C101.287 875.152 101.479 874.336 101.479 873.376C101.479 872.416 101.295 871.608 100.927 870.952C100.559 870.28 100.071 869.776 99.4627 869.44C98.8547 869.104 98.1987 868.936 97.4947 868.936C96.7907 868.936 96.1347 869.104 95.5267 869.44C94.9347 869.776 94.4627 870.28 94.1107 870.952C93.7587 871.608 93.5827 872.416 93.5827 873.376C93.5827 874.8 93.9427 875.904 94.6627 876.688C95.3987 877.456 96.3187 877.84 97.4227 877.84ZM109.727 868.696C110.127 868.024 110.655 867.504 111.311 867.136C111.983 866.752 112.775 866.56 113.687 866.56V869.392H112.991C111.919 869.392 111.103 869.664 110.543 870.208C109.999 870.752 109.727 871.696 109.727 873.04V880H106.991V866.776H109.727V868.696ZM121.434 873.4L127.53 880H123.834L118.938 874.312V880H116.202V862.24H118.938V872.56L123.738 866.776H127.53L121.434 873.4ZM135.035 869.008H132.587V880H129.827V869.008H128.267V866.776H129.827V865.84C129.827 864.32 130.227 863.216 131.027 862.528C131.843 861.824 133.115 861.472 134.843 861.472V863.752C134.011 863.752 133.427 863.912 133.091 864.232C132.755 864.536 132.587 865.072 132.587 865.84V866.776H135.035V869.008ZM140.196 862.24V880H137.46V862.24H140.196ZM149.524 880.216C148.276 880.216 147.148 879.936 146.14 879.376C145.132 878.8 144.34 878 143.764 876.976C143.188 875.936 142.9 874.736 142.9 873.376C142.9 872.032 143.196 870.84 143.788 869.8C144.38 868.76 145.188 867.96 146.212 867.4C147.236 866.84 148.38 866.56 149.644 866.56C150.908 866.56 152.052 866.84 153.076 867.4C154.1 867.96 154.908 868.76 155.5 869.8C156.092 870.84 156.388 872.032 156.388 873.376C156.388 874.72 156.084 875.912 155.476 876.952C154.868 877.992 154.036 878.8 152.98 879.376C151.94 879.936 150.788 880.216 149.524 880.216ZM149.524 877.84C150.228 877.84 150.884 877.672 151.492 877.336C152.116 877 152.62 876.496 153.004 875.824C153.388 875.152 153.58 874.336 153.58 873.376C153.58 872.416 153.396 871.608 153.028 870.952C152.66 870.28 152.172 869.776 151.564 869.44C150.956 869.104 150.3 868.936 149.596 868.936C148.892 868.936 148.236 869.104 147.628 869.44C147.036 869.776 146.564 870.28 146.212 870.952C145.86 871.608 145.684 872.416 145.684 873.376C145.684 874.8 146.044 875.904 146.764 876.688C147.5 877.456 148.42 877.84 149.524 877.84ZM176.853 866.776L172.749 880H169.869L167.205 870.232L164.541 880H161.661L157.533 866.776H160.317L163.077 877.408L165.885 866.776H168.741L171.429 877.36L174.165 866.776H176.853ZM183.698 880.216C182.658 880.216 181.722 880.032 180.89 879.664C180.074 879.28 179.426 878.768 178.946 878.128C178.466 877.472 178.21 876.744 178.178 875.944H181.01C181.058 876.504 181.322 876.976 181.802 877.36C182.298 877.728 182.914 877.912 183.65 877.912C184.418 877.912 185.01 877.768 185.426 877.48C185.858 877.176 186.074 876.792 186.074 876.328C186.074 875.832 185.834 875.464 185.354 875.224C184.89 874.984 184.146 874.72 183.122 874.432C182.13 874.16 181.322 873.896 180.698 873.64C180.074 873.384 179.53 872.992 179.066 872.464C178.618 871.936 178.394 871.24 178.394 870.376C178.394 869.672 178.602 869.032 179.018 868.456C179.434 867.864 180.026 867.4 180.794 867.064C181.578 866.728 182.474 866.56 183.482 866.56C184.986 866.56 186.194 866.944 187.106 867.712C188.034 868.464 188.53 869.496 188.594 870.808H185.858C185.81 870.216 185.57 869.744 185.138 869.392C184.706 869.04 184.122 868.864 183.386 868.864C182.666 868.864 182.114 869 181.73 869.272C181.346 869.544 181.154 869.904 181.154 870.352C181.154 870.704 181.282 871 181.538 871.24C181.794 871.48 182.106 871.672 182.474 871.816C182.842 871.944 183.386 872.112 184.106 872.32C185.066 872.576 185.85 872.84 186.458 873.112C187.082 873.368 187.618 873.752 188.066 874.264C188.514 874.776 188.746 875.456 188.762 876.304C188.762 877.056 188.554 877.728 188.138 878.32C187.722 878.912 187.13 879.376 186.362 879.712C185.61 880.048 184.722 880.216 183.698 880.216Z" fill="black"/>
</g>
</g>
</g>
<rect width="304" height="93" transform="translate(20 911)" fill="white"/>
<rect width="1086" height="1004" transform="translate(344 10)" fill="white"/>
<defs>
<clipPath id="clip0_82_37">
<rect width="304" height="83" fill="white" transform="translate(20 20)"/>
</clipPath>
<clipPath id="clip1_82_37">
<rect width="304" height="788" fill="white" transform="translate(20 113)"/>
</clipPath>
<clipPath id="clip2_82_37">
<rect width="304" height="788" fill="white" transform="translate(20 113)"/>
</clipPath>
<clipPath id="clip3_82_37">
<rect width="175" height="36" fill="white" transform="translate(30 138)"/>
</clipPath>
<clipPath id="clip4_82_37">
<rect width="284" height="36" fill="white" transform="translate(30 214)"/>
</clipPath>
<clipPath id="clip5_82_37">
<rect width="106" height="36" fill="white" transform="translate(30 214)"/>
</clipPath>
<clipPath id="clip6_82_37">
<rect width="140" height="30" fill="white" transform="translate(50 280)"/>
</clipPath>
<clipPath id="clip7_82_37">
<rect width="24" height="24" fill="white" transform="translate(50 283)"/>
</clipPath>
<clipPath id="clip8_82_37">
<rect width="177" height="30" fill="white" transform="translate(50 340)"/>
</clipPath>
<clipPath id="clip9_82_37">
<rect width="24" height="24" fill="white" transform="translate(50 343)"/>
</clipPath>
<clipPath id="clip10_82_37">
<rect width="131" height="30" fill="white" transform="translate(50 400)"/>
</clipPath>
<clipPath id="clip11_82_37">
<rect width="24" height="24" fill="white" transform="translate(50 403)"/>
</clipPath>
<clipPath id="clip12_82_37">
<rect width="146" height="30" fill="white" transform="translate(50 460)"/>
</clipPath>
<clipPath id="clip13_82_37">
<rect width="24" height="24" fill="white" transform="translate(50 463)"/>
</clipPath>
<clipPath id="clip14_82_37">
<rect width="147" height="36" fill="white" transform="translate(30 550)"/>
</clipPath>
<clipPath id="clip15_82_37">
<rect width="166" height="36" fill="white" transform="translate(30 626)"/>
</clipPath>
<clipPath id="clip16_82_37">
<rect width="152" height="36" fill="white" transform="translate(30 702)"/>
</clipPath>
<clipPath id="clip17_82_37">
<rect width="151" height="36" fill="white" transform="translate(30 778)"/>
</clipPath>
<clipPath id="clip18_82_37">
<rect width="160" height="36" fill="white" transform="translate(30 854)"/>
</clipPath>
</defs>
</svg>
