<svg width="203" height="203" viewBox="0 0 203 203" fill="none" xmlns="http://www.w3.org/2000/svg">
<path d="M124.847 16.24C130.765 22.1693 132.478 30.1744 132.557 38.3242C132.55 39.6326 132.538 40.941 132.521 42.2494C132.516 42.9306 132.511 43.6119 132.507 44.2932C132.495 45.9381 132.479 47.5827 132.458 49.2275C132.922 49.2464 133.387 49.2654 133.865 49.285C134.468 49.3183 135.072 49.3517 135.693 49.3861C136.294 49.4155 136.894 49.445 137.513 49.4753C138.022 49.561 138.531 49.6467 139.055 49.735C140.082 51.2754 140.233 51.8636 140.387 53.6364C140.444 54.2517 140.444 54.2517 140.502 54.8794C140.527 55.1914 140.552 55.5035 140.578 55.825C141.159 55.8132 141.74 55.8014 142.338 55.7893C147.807 55.7156 153.254 55.8647 158.713 56.176C159.433 56.2166 160.153 56.2551 160.873 56.2912C169.062 56.7101 169.062 56.7101 171.912 59.1059C173.797 61.556 174.11 63.3101 174.326 66.3378C174.368 66.9194 174.41 67.5011 174.453 68.1004C174.495 68.7283 174.537 69.3563 174.58 70.0033C174.624 70.6574 174.668 71.3115 174.714 71.9854C176.021 91.9265 175.866 111.891 174.513 131.824C174.453 132.724 174.395 133.625 174.34 134.525C174.262 135.792 174.172 137.058 174.079 138.323C174.047 138.883 174.047 138.883 174.014 139.454C173.772 142.458 172.911 145.482 170.56 147.508C169.701 147.905 168.842 148.301 167.983 148.697C168.462 148.746 168.462 148.746 168.95 148.795C169.384 148.857 169.819 148.919 170.266 148.983C170.69 149.036 171.114 149.089 171.551 149.144C175.586 150.667 178.14 154.394 180.543 157.801C181.164 158.662 181.785 159.523 182.407 160.384C182.713 160.81 183.018 161.237 183.334 161.676C184.621 163.458 185.942 165.214 187.268 166.967C189.59 170.053 191.891 173.153 194.182 176.261C194.489 176.677 194.796 177.093 195.112 177.521C195.398 177.909 195.684 178.297 195.978 178.697C196.232 179.042 196.486 179.386 196.747 179.741C198.24 181.809 198.583 182.877 198.591 185.428C198.6 185.997 198.608 186.566 198.617 187.152C198.414 188.96 197.998 189.885 196.91 191.327C195.196 192.471 194.665 192.463 192.663 192.437C192.094 192.432 191.525 192.428 190.938 192.423C190.31 192.412 189.682 192.402 189.035 192.391C188.37 192.384 187.705 192.377 187.019 192.369C185.168 192.35 183.317 192.323 181.465 192.296C179.469 192.268 177.473 192.245 175.477 192.222C171.558 192.176 167.64 192.124 163.722 192.071C159.141 192.008 154.56 191.952 149.979 191.895C141.779 191.794 133.58 191.688 125.38 191.58C117.469 191.475 109.559 191.373 101.648 191.274C101.164 191.268 100.68 191.262 100.181 191.256C98.233 191.231 96.2852 191.207 94.3374 191.183C86.2931 191.082 78.2488 190.98 70.2045 190.877C68.3879 190.854 66.5714 190.83 64.7548 190.807C62.1025 190.774 59.4503 190.74 56.798 190.706C56.3706 190.7 55.9432 190.695 55.5029 190.689C50.982 190.631 46.4613 190.57 41.9406 190.501C41.5566 190.495 41.1727 190.49 40.7772 190.484C39.2706 190.461 37.764 190.438 36.2574 190.415C31.9587 190.348 27.6604 190.3 23.3611 190.282C21.2159 190.272 19.0708 190.251 16.9257 190.227C15.9781 190.22 15.0305 190.218 14.083 190.221C12.83 190.226 11.5785 190.213 10.3257 190.195C9.79262 190.204 9.79262 190.204 9.24877 190.214C8.26639 190.189 8.26638 190.189 6.5977 189.805C4.40134 187.21 4.13392 185.151 4.24655 181.84C4.81229 178.885 6.57277 177.182 8.6277 175.087C9.46516 174.17 10.3004 173.25 11.1335 172.328C11.5633 171.861 11.9931 171.395 12.4359 170.914C13.6462 169.568 14.7899 168.189 15.923 166.777C17.8835 164.346 19.9643 162.063 22.1004 159.787C23.7488 158.02 25.2958 156.203 26.8025 154.312C29.8542 150.548 32.3011 148.402 37.0477 147.175C36.6499 146.735 36.2522 146.296 35.8424 145.843C33.0805 142.79 33.1995 138.73 32.956 134.836C32.9146 134.186 32.8731 133.535 32.8305 132.865C31.6102 112.444 31.7668 92.0209 33.178 71.6209C33.207 71.1785 33.2359 70.7361 33.2658 70.2803C33.3497 69.0256 33.4428 67.772 33.5388 66.5182C33.5627 66.1479 33.5865 65.7777 33.6111 65.3962C33.8308 62.7351 34.4534 60.5257 36.3043 58.5429C38.8012 56.6335 40.021 56.2515 43.1635 56.0787C43.5278 56.0583 43.8922 56.0378 44.2676 56.0168C45.4662 55.9504 46.665 55.8876 47.8638 55.825C48.6929 55.7801 49.5219 55.7352 50.351 55.6903C56.1124 55.3835 61.8737 55.1454 67.641 54.9834C68.7352 54.9514 69.8291 54.9135 70.9228 54.8692C72.0711 54.828 73.2203 54.8094 74.3693 54.8082C78.1123 54.7182 81.14 54.2232 84.2288 51.9991C86.3466 49.4341 85.9497 46.2694 85.8311 43.1058C85.8232 42.4242 85.8179 41.7425 85.8153 41.0609C85.8087 39.7094 85.7928 38.3593 85.7715 37.0078C85.7578 29.8712 86.2097 22.6818 91.3502 17.255C91.6047 16.9802 91.8592 16.7055 92.1214 16.4224C100.593 8.2599 116.197 8.87521 124.847 16.24ZM91.6198 18.7497C87.0547 24.8753 87.2561 32.5343 86.9413 39.8387C86.9166 40.4083 86.8919 40.9778 86.8664 41.5646C86.8473 42.1098 86.8282 42.655 86.8085 43.2168C86.791 43.7025 86.7735 44.1883 86.7556 44.6887C86.7863 46.3799 87.051 48.0605 87.2902 49.735C89.9698 49.4 92.6494 49.0651 95.4102 48.72C95.4292 47.6916 95.4481 46.6632 95.4677 45.6036C95.4924 44.5856 95.5172 43.5676 95.5434 42.5497C95.5601 41.8529 95.5743 41.1561 95.586 40.4592C95.7747 29.4726 95.7747 29.4726 98.9627 25.375C98.9627 25.04 98.9627 24.7051 98.9627 24.36C104.222 21.6446 108.794 20.3054 114.568 22.1079C117.807 23.4233 119.464 25.0909 120.892 28.2614C122.221 31.7293 122.847 34.9953 122.976 38.7087C122.997 39.2943 123.018 39.8798 123.04 40.483C123.06 41.0868 123.08 41.6907 123.101 42.3128C123.134 43.2362 123.134 43.2362 123.167 44.1782C123.221 45.6921 123.272 47.206 123.323 48.72C125.835 48.8875 128.347 49.0549 130.935 49.2275C131.701 32.3795 131.701 32.3795 124.243 17.7942C119.674 13.5561 113.696 11.916 107.568 12.0531C101.702 12.5491 95.6869 14.2798 91.6198 18.7497ZM99.7557 25.9459C95.1368 32.1175 96.4252 41.7062 96.4252 48.72C104.799 48.72 113.173 48.72 121.8 48.72C121.832 46.5847 121.863 44.4494 121.895 42.2494C121.909 41.5894 121.923 40.9295 121.937 40.2496C121.974 35.018 121.556 29.843 118.085 25.6902C115.176 22.8826 111.886 22.1333 107.959 22.1912C104.792 22.5088 101.976 23.6274 99.7557 25.9459ZM88.8127 51.2575C88.2072 53.074 88.1239 54.8018 88.0257 56.6972C88.0044 57.0973 87.9832 57.4975 87.9613 57.9097C87.7299 62.7024 87.7033 67.4957 87.7037 72.2932C87.7025 73.8395 87.6933 75.3856 87.6837 76.9318C87.6693 81.5883 87.7311 86.2211 88.1843 90.8583C88.2152 91.2184 88.2461 91.5784 88.278 91.9493C88.5803 94.5867 89.3893 96.2875 90.8427 98.455C93.2136 100.082 95.7611 100.41 98.5503 100.802C99.1494 100.894 99.1494 100.894 99.7606 100.989C110.309 102.563 126.136 104.653 136.01 99.47C138.187 97.7187 139.754 95.7213 140.24 92.9068C140.554 90.0038 140.666 87.1322 140.681 84.2133C140.684 83.7353 140.688 83.2573 140.691 82.7648C140.7 81.2282 140.703 79.6916 140.705 78.155C140.705 77.6334 140.706 77.1119 140.707 76.5745C141.365 63.4961 141.365 63.4961 138.04 51.2575C130.498 47.4865 115.867 49.637 107.685 49.6398C107.116 49.6394 106.546 49.639 105.959 49.6386C104.311 49.6387 102.663 49.6432 101.014 49.6497C100.524 49.6503 100.034 49.6509 99.5294 49.6516C93.9099 49.458 93.9099 49.458 88.8127 51.2575ZM57.8836 56.7383C56.2873 56.8089 54.6909 56.8757 53.0944 56.9421C52.0639 56.9865 51.0333 57.031 50.0028 57.0759C49.2986 57.1053 49.2986 57.1053 48.5801 57.1352C42.3844 57.1792 42.3844 57.1792 37.0477 59.885C35.5477 61.9132 35.2305 63.7637 35.0613 66.2208C35.031 66.5879 35.0007 66.955 34.9694 67.3332C34.8728 68.5294 34.7861 69.726 34.7005 70.9231C34.6367 71.7613 34.5728 72.5995 34.5086 73.4377C34.3271 75.8551 34.1614 78.2734 34.0027 80.6925C33.9647 81.2692 33.9266 81.846 33.8875 82.4402C30.3564 114.691 30.3564 114.691 36.5402 144.637C41.3452 148.87 50.8189 147.483 56.8402 147.682C57.5046 147.705 58.1691 147.727 58.8536 147.75C76.1514 148.308 93.453 148.268 110.757 148.255C113.989 148.253 117.22 148.255 120.451 148.257C123.631 148.259 126.811 148.26 129.991 148.258C131.864 148.258 133.737 148.257 135.61 148.259C142.915 148.265 150.216 148.222 157.519 147.995C158.091 147.98 158.664 147.965 159.254 147.949C165.168 147.822 165.168 147.822 170.52 145.652C173.05 141.858 172.817 136.558 173.089 132.14C173.152 131.158 173.152 131.158 173.216 130.157C173.337 128.217 173.452 126.277 173.565 124.337C173.596 123.85 173.627 123.362 173.659 122.86C174.604 107.656 174.43 92.2513 173.629 77.0448C173.609 76.6538 173.589 76.2628 173.568 75.8599C173.614 66.9619 173.614 66.9619 170.013 59.3775C168.436 58.3191 167.015 58.1864 165.14 58.0592C164.288 57.9992 164.288 57.9992 163.42 57.938C162.811 57.9001 162.202 57.8623 161.575 57.8233C160.951 57.7815 160.327 57.7397 159.684 57.6966C153.32 57.2866 146.951 57.037 140.578 56.84C140.745 58.1798 140.913 59.5196 141.085 60.9C141.617 60.9254 142.15 60.9508 142.698 60.977C144.688 61.0732 146.678 61.1748 148.668 61.2779C149.526 61.3216 150.385 61.3639 151.243 61.4048C152.483 61.464 153.723 61.5284 154.962 61.5938C155.341 61.6108 155.719 61.6278 156.11 61.6452C159.243 61.8188 162.29 62.0986 164.874 64.0084C167.624 67.7286 167.304 72.8728 167.539 77.3303C167.56 77.7201 167.581 78.1099 167.602 78.5115C168.445 94.6616 168.261 110.83 167.317 126.97C167.287 127.506 167.257 128.043 167.226 128.595C167.139 130.113 167.043 131.629 166.942 133.145C166.904 133.813 166.904 133.813 166.865 134.494C166.63 137.721 166.094 140.371 163.796 142.798C160.986 144.458 157.423 144.25 154.22 144.397C153.768 144.419 153.317 144.44 152.852 144.462C151.356 144.532 149.86 144.597 148.365 144.661C147.582 144.695 147.582 144.695 146.783 144.73C135.102 145.221 123.429 145.301 111.739 145.277C108.917 145.272 106.094 145.275 103.272 145.281C88.1093 145.307 72.9962 144.94 57.8552 144.13C57.4401 144.108 57.0249 144.086 56.5972 144.063C55.409 144 54.221 143.934 53.033 143.867C52.6852 143.848 52.3374 143.829 51.9791 143.809C45.864 143.453 45.864 143.453 43.1694 141.561C40.3209 137.504 40.7669 131.583 40.5368 126.78C40.5156 126.354 40.4944 125.928 40.4726 125.489C39.7698 111.013 39.7581 96.4977 40.5368 82.0247C40.5566 81.6498 40.5765 81.2749 40.5969 80.8887C41.3932 66.3769 41.3932 66.3769 43.1377 62.93C46.3793 61.1291 50.3503 61.289 53.9637 61.1537C54.4667 61.1331 54.9698 61.1125 55.488 61.0913C57.0911 61.0257 58.6943 60.9626 60.2975 60.9C61.8953 60.8373 63.4931 60.774 65.0907 60.7087C66.0826 60.6682 67.0745 60.6291 68.0665 60.5917C70.9434 60.4744 73.7745 60.2348 76.6327 59.885C76.9676 58.7127 77.3026 57.5403 77.6477 56.3325C71.0485 56.2621 64.4761 56.4454 57.8836 56.7383ZM58.8485 61.7575C57.4884 61.8207 56.1281 61.8742 54.7676 61.9279C53.8916 61.9686 53.0157 62.0099 52.1399 62.0518C51.7386 62.0661 51.3374 62.0805 50.9239 62.0952C48.5095 62.2242 46.7146 62.555 44.6602 63.945C42.7262 66.1901 42.2738 68.2216 42.0989 71.1015C42.0679 71.5098 42.0368 71.9182 42.0049 72.3389C41.9059 73.7061 41.8228 75.0737 41.7421 76.4422C41.7114 76.9198 41.6808 77.3973 41.6492 77.8894C37.6333 110.694 37.6333 110.694 44.343 140.99C46.2171 142.552 47.775 142.661 50.1608 142.797C50.902 142.84 50.902 142.84 51.6583 142.884C52.4678 142.928 52.4678 142.928 53.2936 142.972C53.8653 143.004 54.437 143.036 55.0259 143.069C56.931 143.172 58.8362 143.271 60.7416 143.369C61.4014 143.403 62.0612 143.436 62.741 143.471C87.8265 144.739 112.935 144.915 138.04 144.13C138.583 144.113 139.125 144.097 139.684 144.08C142.873 143.981 146.061 143.871 149.249 143.744C150.222 143.706 151.195 143.669 152.169 143.635C153.497 143.586 154.824 143.529 156.152 143.468C156.537 143.455 156.923 143.442 157.32 143.429C159.7 143.306 161.428 142.925 163.415 141.592C165.383 139.32 165.804 137.242 165.976 134.325C166.008 133.905 166.039 133.486 166.071 133.053C166.169 131.65 166.253 130.246 166.333 128.842C166.364 128.352 166.395 127.862 166.426 127.358C167.492 110.047 167.542 92.5236 166.555 75.2051C166.502 74.2275 166.502 74.2275 166.448 73.2301C166.125 68.1635 166.125 68.1635 163.447 64.0084C161.136 62.7481 158.643 62.7845 156.064 62.6584C155.65 62.6366 155.237 62.6148 154.81 62.5923C153.492 62.5232 152.173 62.457 150.855 62.3908C149.959 62.3444 149.064 62.2978 148.168 62.251C145.977 62.1369 143.785 62.0253 141.593 61.915C141.595 62.2287 141.597 62.5424 141.6 62.8656C141.622 66.1677 141.637 69.4697 141.648 72.7718C141.654 73.9998 141.66 75.2277 141.669 76.4557C141.803 95.4637 141.803 95.4637 138.548 99.47C132.226 105.735 123.048 108.125 114.441 108.7C113.908 108.742 113.375 108.783 112.826 108.826C86.5955 110.755 86.5955 110.755 79.1702 104.545C75.1153 96.4958 76.5053 85.8762 76.563 77.1148C76.5735 75.3383 76.578 73.5619 76.5831 71.7855C76.5939 68.3261 76.6111 64.8668 76.6327 61.4075C70.6949 61.3508 64.7799 61.4743 58.8485 61.7575ZM105.053 105.052C105.053 105.387 105.053 105.722 105.053 106.067C108.879 107.142 111.897 107.556 115.71 106.067C115.71 105.733 115.71 105.398 115.71 105.052C113.904 104.45 112.26 104.471 110.381 104.482C109.866 104.479 109.866 104.479 109.341 104.476C107.773 104.479 106.551 104.553 105.053 105.052ZM29.9823 152.773C29.7477 153.056 29.513 153.339 29.2713 153.63C28.9128 154.077 28.9128 154.077 28.5471 154.534C28.0187 155.172 27.4894 155.81 26.9592 156.447C26.5636 156.924 26.5636 156.924 26.16 157.411C24.9794 158.808 23.7374 160.144 22.4888 161.48C20.7689 163.33 19.1233 165.22 17.5407 167.189C15.8143 169.337 14 171.366 12.1168 173.375C9.7818 175.865 7.60496 178.422 5.5827 181.177C5.96471 182.522 5.96471 182.522 7.1052 183.715C8.84779 184.137 10.5941 184.084 12.3799 184.08C13.2057 184.093 13.2057 184.093 14.0481 184.106C15.9075 184.133 17.7666 184.141 19.6262 184.149C20.9614 184.164 22.2966 184.181 23.6317 184.198C26.5291 184.234 29.4264 184.261 32.3239 184.282C36.571 184.313 40.8179 184.358 45.0648 184.406C50.3924 184.466 55.72 184.524 61.0477 184.574C72.8676 184.686 84.6868 184.83 96.5061 184.995C98.7265 185.026 100.947 185.056 103.167 185.086C103.606 185.092 104.045 185.098 104.497 185.105C105.821 185.123 107.146 185.141 108.471 185.159C109.787 185.177 111.103 185.195 112.42 185.213C113.289 185.225 114.158 185.236 115.028 185.248C117.147 185.277 119.266 185.306 121.385 185.336C127.024 185.414 132.663 185.489 138.302 185.559C138.689 185.563 139.076 185.568 139.475 185.573C158.45 185.805 177.426 185.791 196.403 185.745C196.738 185.075 197.073 184.405 197.418 183.715C194.772 179.813 192.039 175.995 189.197 172.233C187.148 169.52 185.126 166.789 183.113 164.049C182.514 163.237 181.915 162.425 181.316 161.613C180.299 160.233 179.287 158.849 178.279 157.462C177.886 156.925 177.492 156.388 177.086 155.834C176.756 155.38 176.425 154.925 176.085 154.456C173.395 151.242 171.008 150.719 166.968 150.22C164.322 150.062 161.679 150.033 159.03 150.012C158.241 150.002 157.451 149.992 156.662 149.981C154.522 149.954 152.382 149.932 150.243 149.912C147.965 149.89 145.687 149.862 143.409 149.834C138.532 149.777 133.655 149.727 128.779 149.679C125.772 149.649 122.765 149.618 119.759 149.586C107.655 149.458 95.5517 149.343 83.4479 149.238C80.714 149.214 77.9801 149.19 75.2462 149.165C68.4544 149.103 61.6628 149.051 54.8708 149.026C53.044 149.019 51.2173 149.008 49.3905 148.994C47.3192 148.977 45.2481 148.97 43.1768 148.972C42.4536 148.971 41.7305 148.967 41.0074 148.959C36.5037 148.913 33.0034 149.042 29.9823 152.773Z" fill="black"/>
<path d="M42.451 153.824C42.9964 153.865 43.5418 153.907 44.1037 153.95C44.683 153.973 45.2623 153.995 45.8591 154.018C47.0672 154.066 48.2749 154.123 49.4821 154.19C51.6633 154.301 53.8401 154.33 56.0237 154.35C57.6264 154.365 59.2286 154.392 60.8311 154.422C63.1843 154.465 65.5374 154.507 67.8907 154.547C73.1927 154.638 78.4946 154.732 83.7964 154.834C87.9748 154.915 92.1532 154.993 96.3317 155.067C96.681 155.073 97.0303 155.079 97.3902 155.086C107.269 155.261 117.137 155.306 127.018 155.207C130.712 155.174 134.406 155.159 138.1 155.144C141.58 155.126 145.057 155.072 148.537 154.992C150.684 154.951 152.832 154.943 154.98 154.944C155.967 154.938 156.953 154.917 157.939 154.881C165.133 154.625 165.133 154.625 167.332 156.576C168.905 158.492 169.993 160.598 171.01 162.848C171.738 164.338 172.651 165.682 173.59 167.046C174.072 167.983 174.072 167.983 174.072 170.013C152.915 170.091 131.769 169.895 110.614 169.589C107.766 169.548 104.917 169.508 102.068 169.469C101.666 169.464 101.263 169.458 100.848 169.453C100.446 169.447 100.044 169.442 99.6296 169.436C84.4262 169.229 69.2232 169.006 54.0209 168.728C53.4649 168.718 52.9089 168.708 52.3361 168.698C44.3601 168.553 36.389 168.356 28.4199 167.983C28.8547 165.871 29.9196 164.501 31.2429 162.844C31.4486 162.581 31.6544 162.318 31.8664 162.047C32.3009 161.494 32.742 160.945 33.1894 160.402C34.0388 159.341 34.0388 159.341 34.8235 158.074C37.0438 154.825 38.4863 153.706 42.451 153.824ZM36.4513 158.541C35.9937 159.278 35.9937 159.278 36.0324 159.863C50.2372 160.339 64.4425 160.549 78.6537 160.729C81.8066 160.769 84.9594 160.811 88.1122 160.853C94.0519 160.931 99.9916 161.008 105.931 161.085C110.678 161.146 115.425 161.208 120.172 161.27C120.677 161.277 120.677 161.277 121.191 161.283C122.88 161.305 124.568 161.328 126.257 161.35C140.165 161.532 154.074 161.713 167.982 161.893C167.064 159.385 167.064 159.385 165.445 157.325C164.095 157.12 162.952 157.049 161.6 157.064C161.204 157.06 160.808 157.057 160.4 157.053C159.066 157.043 157.732 157.047 156.397 157.051C155.438 157.047 154.48 157.041 153.521 157.034C151.445 157.022 149.368 157.015 147.291 157.013C142.246 157.007 137.2 156.971 132.155 156.938C130.369 156.926 128.583 156.916 126.797 156.906C118.064 156.852 109.333 156.729 100.602 156.566C99.9787 156.554 99.3555 156.542 98.7134 156.53C93.2051 156.427 87.6969 156.318 82.1887 156.207C76.1273 156.085 70.0659 155.971 64.0039 155.88C60.9081 155.832 57.8133 155.766 54.7181 155.685C52.7656 155.638 50.8129 155.605 48.86 155.576C47.9542 155.559 47.0484 155.537 46.1429 155.507C44.9092 155.468 43.677 155.451 42.4427 155.439C42.0845 155.422 41.7262 155.405 41.3571 155.388C38.6517 155.398 37.7931 156.397 36.4513 158.541ZM32.2488 163.389C31.3228 164.828 31.3228 164.828 30.9574 166.46C36.1469 167.07 41.3473 167.121 46.565 167.221C47.5566 167.242 48.5483 167.262 49.5399 167.283C52.1934 167.338 54.8469 167.391 57.5005 167.443C59.1666 167.475 60.8327 167.508 62.4988 167.542C68.6023 167.663 74.706 167.782 80.8097 167.897C83.8637 167.955 86.9177 168.015 89.9716 168.078C117.326 168.638 144.683 168.542 172.042 168.49C171.631 167.654 171.219 166.819 170.805 165.984C170.576 165.519 170.346 165.054 170.11 164.575C169.604 163.463 169.604 163.463 168.997 162.908C167.671 162.84 166.357 162.806 165.029 162.792C164.608 162.786 164.187 162.78 163.753 162.773C162.33 162.752 160.906 162.735 159.482 162.718C158.465 162.704 157.448 162.69 156.43 162.675C154.229 162.645 152.027 162.615 149.825 162.587C146.315 162.543 142.805 162.495 139.296 162.446C133.708 162.369 128.121 162.295 122.534 162.222C112.628 162.091 102.721 161.957 92.815 161.822C89.3569 161.775 85.8988 161.728 82.4406 161.683C80.7961 161.662 79.1516 161.639 77.5071 161.617C75.3706 161.588 73.2341 161.563 71.0976 161.542C66.0328 161.487 60.9779 161.383 55.9176 161.154C53.4788 161.045 51.0395 160.955 48.6 160.865C47.4353 160.816 46.2709 160.758 45.1072 160.691C37.964 159.901 37.964 159.901 32.2488 163.389Z" fill="black"/>
<path d="M116.608 118.391C118.055 118.406 119.502 118.419 120.949 118.432C123.258 118.453 125.566 118.48 127.874 118.511C128.733 118.521 129.592 118.531 130.45 118.538C134.608 118.577 138.576 118.621 142.607 119.77C143.615 122.708 143.777 125.336 143.749 128.429C143.753 128.872 143.757 129.314 143.761 129.77C143.744 135.381 143.744 135.381 141.592 137.533C135.952 138.353 130.09 138.115 124.403 138.107C123.484 138.108 122.565 138.108 121.646 138.109C119.722 138.11 117.798 138.109 115.874 138.106C113.475 138.103 111.076 138.105 108.677 138.108C99.21 138.118 89.7437 138.076 80.2781 137.874C79.3879 137.855 78.4976 137.838 77.6073 137.822C76.3808 137.8 75.1547 137.771 73.9284 137.74C73.5693 137.735 73.2102 137.729 72.8402 137.723C70.8598 137.665 69.2614 137.447 67.4975 136.518C65.3401 132.03 66.241 125.478 67.0772 120.747C67.4975 119.77 67.4975 119.77 68.2662 119.216C70.1135 118.541 71.9447 118.562 73.8888 118.527C74.3449 118.516 74.8009 118.504 75.2707 118.493C76.8242 118.457 78.3776 118.431 79.9312 118.406C80.7421 118.391 80.7421 118.391 81.5693 118.376C93.2489 118.17 104.928 118.268 116.608 118.391ZM86.275 119.77C86.2645 122.345 86.2541 124.92 86.2433 127.573C86.2387 128.385 86.234 129.197 86.2293 130.034C86.228 130.67 86.2267 131.306 86.2254 131.962C86.2228 132.616 86.2201 133.269 86.2174 133.943C86.1657 135.459 86.1657 135.459 86.7825 136.518C92.6441 136.518 98.5057 136.518 104.545 136.518C104.712 130.991 104.88 125.464 105.052 119.77C98.8559 119.77 92.6593 119.77 86.275 119.77ZM106.067 119.77C106.067 125.297 106.067 130.823 106.067 136.518C112.097 136.518 118.126 136.518 124.337 136.518C124.505 131.158 124.672 125.799 124.845 120.278C120.335 119.955 115.96 119.7 111.46 119.738C109.68 119.749 107.901 119.759 106.067 119.77ZM73.2069 119.96C72.8601 119.976 72.5134 119.992 72.1562 120.008C70.1084 120.087 70.1084 120.087 68.5125 121.293C67.9887 123.565 67.9217 125.786 67.9098 128.112C67.9026 128.75 67.8955 129.388 67.888 130.045C68.0128 132.077 68.3327 133.595 69.02 135.503C70.4914 136.238 71.8229 136.122 73.4646 136.171C74.0803 136.19 74.696 136.209 75.3303 136.229C76.1159 136.251 76.9015 136.273 77.7109 136.295C80.2021 136.369 82.6933 136.442 85.26 136.518C85.0925 130.991 84.925 125.464 84.7525 119.77C78.9675 119.754 78.9675 119.754 73.2069 119.96ZM125.86 120.278C125.773 121.747 125.689 123.217 125.606 124.686C125.582 125.091 125.558 125.496 125.533 125.913C125.337 129.449 125.327 132.976 125.352 136.518C127.679 136.547 130.004 136.565 132.331 136.581C133.322 136.594 133.322 136.594 134.333 136.607C135.285 136.612 135.285 136.612 136.256 136.617C136.84 136.622 137.425 136.627 138.028 136.633C139.53 136.52 140.377 136.381 141.592 135.503C141.951 134.196 142.158 133.092 142.29 131.76C142.35 131.217 142.35 131.217 142.41 130.663C142.698 127.534 142.77 124.253 141.592 121.293C139.888 120.135 138.388 120.159 136.367 120.178C135.755 120.182 135.143 120.185 134.513 120.188C133.877 120.197 133.24 120.205 132.584 120.214C131.94 120.219 131.296 120.223 130.632 120.228C129.041 120.24 127.451 120.257 125.86 120.278Z" fill="black"/>
<path d="M88.6281 170.984C89.2303 170.987 89.2303 170.987 89.8447 170.99C91.1924 170.999 92.5399 171.012 93.8874 171.027C94.5967 171.035 94.5967 171.035 95.3202 171.043C98.3508 171.079 101.381 171.129 104.411 171.189C105.464 171.208 106.516 171.226 107.569 171.242C109.112 171.265 110.656 171.294 112.199 171.325C112.668 171.331 113.137 171.337 113.62 171.343C117.771 171.438 117.771 171.438 119.77 172.55C120.408 173.488 120.408 173.488 120.848 174.612C120.996 174.973 121.144 175.335 121.296 175.708C122.004 177.69 122.665 179.686 123.322 181.685C113.486 181.744 103.658 181.698 93.824 181.463C93.1585 181.448 93.1585 181.448 92.4797 181.433C88.0206 181.331 83.6021 181.209 79.1699 180.67C79.8517 178.396 80.7591 176.466 81.9612 174.421C82.27 173.89 82.5787 173.358 82.8969 172.81C84.3911 170.544 86.1395 170.961 88.6281 170.984ZM84.7524 172.55C83.5801 174.895 82.4078 177.239 81.1999 179.655C94.5682 180.081 107.918 180.23 121.292 180.162C120.895 179.072 120.492 177.983 120.087 176.895C119.863 176.289 119.64 175.683 119.409 175.058C118.922 173.513 118.922 173.513 117.74 173.057C115.748 172.872 113.744 172.839 111.745 172.772C111.131 172.75 110.516 172.729 109.883 172.707C101.508 172.446 93.13 172.509 84.7524 172.55Z" fill="black"/>
<path d="M128.905 70.035C130.245 71.4889 130.422 72.0212 130.681 74.0633C130.609 75.7406 130.429 76.1226 129.381 77.5523C125.536 80.4152 121.717 80.7905 117.105 80.8194C116.695 80.8298 116.285 80.8403 115.862 80.8511C111.772 80.8773 108.067 80.0608 105.052 77.14C104.266 75.5665 104.398 74.3087 104.545 72.5725C105.908 70.1727 107.564 69.3965 110.127 68.5125C115.818 67.2998 123.831 66.818 128.905 70.035ZM106.765 71.9381C105.925 73.1102 105.925 73.1102 105.972 74.8562C106.601 76.7109 106.712 76.9212 108.288 77.8378C111.28 79.1793 113.562 79.2791 116.788 79.2969C117.251 79.3073 117.715 79.3178 118.192 79.3286C121.819 79.3493 125.207 78.9396 128.144 76.6642C128.94 75.5686 129.328 74.9386 129.412 73.5875C128.961 71.9333 128.437 71.5805 126.938 70.7011C123.969 69.4541 121.341 69.4183 118.152 69.4006C117.691 69.3901 117.23 69.3797 116.756 69.3689C113.09 69.3479 109.857 69.8769 106.765 71.9381Z" fill="black"/>
<path d="M75.1101 123.83C75.445 123.83 75.78 123.83 76.1251 123.83C76.1251 124.165 76.1251 124.5 76.1251 124.845C76.795 124.51 77.4649 124.175 78.1551 123.83C78.6626 125.353 78.6626 125.353 78.6626 126.875C78.925 128.581 79.3467 129.933 80.1851 131.443C79.5152 131.443 78.8453 131.443 78.1551 131.443C77.9876 131.275 77.8201 131.108 77.6476 130.935C77.4801 131.27 77.3126 131.605 77.1401 131.95C76.8051 131.95 76.4702 131.95 76.1251 131.95C76.1251 131.615 76.1251 131.28 76.1251 130.935C75.2877 131.27 74.4503 131.605 73.5876 131.95C73.7551 131.113 73.9225 130.275 74.0951 129.413C73.7601 129.245 73.4252 129.078 73.0801 128.905C73.0801 127.89 73.0801 127.89 74.0951 126.875C73.7601 126.205 73.4252 125.535 73.0801 124.845C73.5825 125.012 74.0849 125.18 74.6026 125.353C74.7701 124.85 74.9375 124.348 75.1101 123.83Z" fill="black"/>
<path d="M133.473 124.338C133.808 124.338 134.143 124.338 134.488 124.338C134.823 124.84 135.158 125.342 135.503 125.86C136.173 125.525 136.843 125.19 137.533 124.845C137.428 125.138 137.323 125.431 137.216 125.733C136.981 127.139 137.315 127.71 138.04 128.905C137.705 128.905 137.37 128.905 137.025 128.905C137.193 129.407 137.36 129.91 137.533 130.428C136.863 130.428 136.193 130.428 135.503 130.428C135.335 131.097 135.168 131.767 134.995 132.458C134.493 132.458 133.99 132.458 133.473 132.458C133.305 131.788 133.138 131.118 132.965 130.428C131.96 130.93 131.96 130.93 130.935 131.443C130.935 129.92 130.935 129.92 131.95 128.398C131.448 128.23 130.945 128.063 130.428 127.89C130.93 127.555 131.433 127.22 131.95 126.875C131.783 126.373 131.615 125.87 131.443 125.353C131.945 125.353 132.448 125.353 132.965 125.353C133.133 125.018 133.3 124.683 133.473 124.338Z" fill="black"/>
<path d="M113.68 123.83C114.015 123.83 114.35 123.83 114.695 123.83C114.862 124.165 115.03 124.5 115.202 124.845C115.872 124.678 116.542 124.51 117.232 124.338C117.306 124.641 117.379 124.945 117.454 125.257C117.683 126.145 117.957 127.021 118.247 127.89C117.745 128.057 117.242 128.225 116.725 128.398C117.06 129.067 117.395 129.737 117.74 130.428C117.07 130.26 116.4 130.093 115.71 129.92C115.542 130.422 115.375 130.925 115.202 131.443C114.899 131.359 114.595 131.275 114.282 131.189C113.115 130.878 113.115 130.878 111.65 130.935C111.817 130.265 111.985 129.595 112.157 128.905C111.655 128.738 111.152 128.57 110.635 128.398C110.635 127.383 110.635 127.383 111.65 126.368C111.482 125.865 111.315 125.363 111.142 124.845C112.398 125.347 112.398 125.347 113.68 125.86C113.68 125.19 113.68 124.52 113.68 123.83Z" fill="black"/>
<path d="M94.3949 124.338C95.9174 124.845 95.9174 124.845 96.4249 125.86C97.0948 125.525 97.7647 125.19 98.4549 124.845C98.6224 126.017 98.7899 127.19 98.9624 128.398C98.46 128.649 98.46 128.649 97.9474 128.905C98.2824 129.575 98.6173 130.245 98.9624 130.935C98.2925 130.935 97.6226 130.935 96.9324 130.935C96.7649 130.768 96.5975 130.6 96.4249 130.428C96.2574 131.097 96.09 131.767 95.9174 132.458C95.5825 132.458 95.2475 132.458 94.9024 132.458C94.5675 132.123 94.2325 131.788 93.8874 131.443C93.385 131.275 92.8826 131.108 92.3649 130.935C92.8673 130.265 93.3698 129.595 93.8874 128.905C93.2175 128.57 92.5476 128.235 91.8574 127.89C92.1924 127.555 92.5273 127.22 92.8724 126.875C92.8724 126.373 92.8724 125.87 92.8724 125.353C93.2074 125.353 93.5423 125.353 93.8874 125.353C94.0549 125.018 94.2224 124.683 94.3949 124.338Z" fill="black"/>
</svg>
