<svg width="203" height="203" viewBox="0 0 203 203" fill="none" xmlns="http://www.w3.org/2000/svg">
<path d="M151.621 89.2085C152.497 89.6401 153.456 89.8757 154.432 89.8987C154.487 89.8924 154.54 89.8753 154.588 89.8484C154.636 89.8214 154.679 89.7852 154.713 89.7417C154.747 89.6983 154.772 89.6485 154.786 89.5953C154.801 89.5421 154.805 89.4865 154.798 89.4318C154.716 88.7924 153.996 89.3405 151.996 88.4168L152.098 87.6657C152.149 87.4526 151.895 87.1075 151.621 87.209C151.347 87.3105 151.276 87.6353 151.194 88.224C151.113 88.8127 151.073 88.9345 151.621 89.2085ZM45.675 92.0911C46.8964 91.759 48.0434 91.1975 49.055 90.4367C49.4508 90.1322 49.3189 89.4217 49.2072 89.0157C49.1754 88.9103 49.1059 88.8205 49.0119 88.7633C48.9179 88.706 48.8061 88.6855 48.698 88.7057C48.5898 88.7258 48.4929 88.7851 48.4258 88.8723C48.3587 88.9595 48.3261 89.0684 48.3343 89.1781C48.3536 89.3981 48.3944 89.6156 48.4561 89.8277C46.0506 91.5836 45.1168 91.1472 45.2589 91.8577C45.2904 91.9388 45.3492 92.0064 45.4251 92.049C45.501 92.0916 45.5893 92.1065 45.675 92.0911ZM42.9142 90.2134C44.9442 90.2134 44.254 89.0157 43.7059 89.1984L42.9244 89.3202C42.2545 86.1432 42.7924 85.4733 42.2139 85.453C42.1266 85.4474 42.0406 85.4761 41.9742 85.533C41.9079 85.5899 41.8664 85.6704 41.8586 85.7575C41.7869 87.0126 41.879 88.2716 42.1327 89.5029C42.2443 90.051 42.4473 90.2134 42.9142 90.2134ZM101.855 88.4676C102.434 88.4676 105.479 87.8078 105.996 87.7266C106.758 87.5947 107.661 87.3612 107.722 86.5391C107.722 86.0316 107.357 85.4429 106.94 85.7474C106.854 85.8081 106.79 85.8959 106.759 85.997C106.727 86.098 106.731 86.2066 106.768 86.3056C106.92 86.7015 106.595 86.671 101.693 87.7368C101.603 87.7646 101.526 87.8254 101.479 87.907C101.432 87.9885 101.417 88.0849 101.437 88.177C101.458 88.2691 101.512 88.3501 101.589 88.404C101.667 88.4578 101.762 88.4805 101.855 88.4676ZM35.0987 63.6204C35.322 63.8741 35.8701 63.6204 35.7077 63.2347C34.6927 60.7581 32.8251 57.9972 31.6477 55.277C31.465 54.8406 31.0996 54.0996 30.7443 54.059C30.6999 54.0528 30.6545 54.059 30.6133 54.0769C30.5721 54.0948 30.5367 54.1237 30.5109 54.1605C30.2876 54.465 30.6124 55.3075 30.7646 55.6628C31.2315 56.6676 33.495 61.7832 35.0987 63.6204ZM68.005 59.337C68.024 59.4163 68.0635 59.4892 68.1194 59.5485C68.1753 59.6077 68.2458 59.6514 68.3238 59.675C68.4018 59.6986 68.4846 59.7013 68.564 59.683C68.6434 59.6647 68.7166 59.6259 68.7764 59.5705C69.6144 58.8074 70.3759 57.9644 71.05 57.0533C74.095 66.7973 74.095 67.1424 74.5721 67.1424C74.6404 67.1405 74.7076 67.1239 74.769 67.0937C74.8304 67.0636 74.8846 67.0206 74.928 66.9676C74.9713 66.9147 75.0027 66.853 75.0201 66.7869C75.0375 66.7207 75.0405 66.6516 75.0288 66.5842C73.892 62.9911 72.6943 59.4792 71.659 55.8962C71.6358 55.8072 71.5868 55.7269 71.5182 55.6657C71.4495 55.6044 71.3643 55.5647 71.2732 55.5517C71.1821 55.5387 71.0892 55.5529 71.0062 55.5925C70.9231 55.6321 70.8536 55.6954 70.8064 55.7744C70.2236 56.6912 69.5429 57.542 68.7764 58.3119C68.1674 55.5308 66.7464 49.1769 66.7464 49.1769C66.7208 49.0746 66.6557 48.9867 66.5653 48.9324C66.4748 48.8782 66.3666 48.862 66.2643 48.8876C66.162 48.9132 66.074 48.9784 66.0198 49.0688C65.9655 49.1592 65.9494 49.2675 65.975 49.3697C66.3201 50.943 67.7919 58.6367 68.005 59.337ZM15.1336 112.137C11.8653 110.574 8.95229 108.971 5.60279 107.204C4.95319 106.859 4.50659 108.047 5.52159 108.321C8.44596 110.146 11.5643 111.641 14.819 112.777C15.225 112.888 15.5092 112.361 15.1336 112.137ZM17.732 88.701C17.8018 88.7627 17.8888 88.8017 17.9813 88.8125C18.0739 88.8234 18.1675 88.8058 18.2497 88.7619C18.9196 88.4371 18.0568 87.6353 18.3816 82.814C26.6133 92.7509 26.1565 92.4971 26.5016 92.4971C26.5731 92.5016 26.6443 92.4855 26.707 92.4508C26.7696 92.4161 26.821 92.3643 26.8552 92.3013C26.8893 92.2384 26.9047 92.167 26.8996 92.0956C26.8945 92.0242 26.8692 91.9557 26.8264 91.8983C25.5374 90.2743 19.894 83.2606 18.3918 81.3524C18.3353 81.2808 18.2595 81.2269 18.1733 81.1971C18.0871 81.1673 17.9942 81.1628 17.9056 81.1842C17.8169 81.2056 17.7363 81.2519 17.6731 81.3177C17.61 81.3834 17.567 81.466 17.5493 81.5554C17.343 83.4091 17.309 85.2779 17.4478 87.1379C14.4028 84.4076 11.4898 81.5148 8.41434 78.8555C8.32123 78.7808 8.20477 78.7413 8.08542 78.7439C7.96607 78.7466 7.85147 78.7912 7.76178 78.87C7.67209 78.9488 7.61304 79.0567 7.59502 79.1747C7.577 79.2927 7.60115 79.4133 7.66324 79.5153C8.86094 81.3727 15.6208 86.7827 17.732 88.701ZM97.7953 51.0546C97.7953 51.1542 97.8348 51.2498 97.9053 51.3202C97.9757 51.3906 98.0712 51.4302 98.1708 51.4302C98.2704 51.4302 98.3659 51.3906 98.4364 51.3202C98.5068 51.2498 98.5464 51.1542 98.5464 51.0546C98.7204 47.3265 98.5641 43.5903 98.0795 39.8896C98.069 39.792 98.0305 39.6995 97.9685 39.6233C97.9065 39.5471 97.8238 39.4906 97.7303 39.4605C97.6368 39.4304 97.5367 39.4281 97.4419 39.4538C97.3471 39.4796 97.2618 39.5322 97.1964 39.6054C96.7397 40.1941 97.8359 42.0516 97.7953 51.0546ZM125.261 68.6852C132.985 55.6526 132.569 56.3022 132.508 56.0688C132.336 55.4801 131.849 55.7642 127.941 56.9416C128.956 53.3384 130.225 49.4915 131.067 45.8477C131.084 45.7299 131.057 45.6098 130.991 45.511C130.924 45.4122 130.823 45.3419 130.707 45.3139C130.591 45.2859 130.469 45.3023 130.365 45.3597C130.261 45.4172 130.182 45.5116 130.143 45.6244C128.996 49.6844 127.86 53.653 126.763 57.5507C126.746 57.6312 126.749 57.715 126.772 57.794C126.796 57.8731 126.839 57.9449 126.898 58.0027C126.957 58.0606 127.029 58.1025 127.109 58.1246C127.188 58.1467 127.272 58.1483 127.352 58.1292C127.352 58.1292 130.042 57.2969 131.128 56.9416L124.642 68.3401C124.604 68.4215 124.598 68.5145 124.625 68.6002C124.653 68.6859 124.712 68.7579 124.79 68.8017C124.869 68.8455 124.961 68.8579 125.049 68.8362C125.136 68.8146 125.212 68.7606 125.261 68.6852ZM197.834 98.4552C197.306 98.2014 187.542 104.271 187.44 104.342C187.085 104.596 187.44 105.225 187.805 105.032C188.394 104.768 197.722 99.5818 198.037 99.0236C198.061 98.9729 198.075 98.918 198.077 98.862C198.08 98.8061 198.072 98.7501 198.053 98.6973C198.034 98.6445 198.005 98.5959 197.968 98.5544C197.93 98.5128 197.884 98.4791 197.834 98.4552ZM171.992 86.8537C171.992 86.8537 181.776 79.3935 183.603 77.9725C183.999 77.6578 183.603 76.9575 183.136 77.0082C181.295 77.0521 179.461 77.2593 177.655 77.6274C180.275 74.8323 182.596 71.7706 184.578 68.4924C184.913 67.9443 184.101 67.3759 183.776 67.9341C181.54 71.5819 178.879 74.9515 175.849 77.9725C175.524 78.2871 175.727 79.0585 176.255 78.9875C178.046 78.5313 179.873 78.2257 181.715 78.074C181.715 78.074 173.961 84.3162 171.565 86.2955C171.525 86.3602 171.506 86.4356 171.509 86.5118C171.513 86.588 171.54 86.6612 171.586 86.7218C171.632 86.7824 171.696 86.8275 171.768 86.851C171.841 86.8746 171.919 86.8755 171.992 86.8537ZM157.995 57.4694C164.227 46.7307 165.313 45.1676 164.268 44.9037C163.821 44.7921 163.841 44.8327 157.295 57.0838C157.264 57.1741 157.266 57.2723 157.3 57.3612C157.335 57.4502 157.4 57.5241 157.483 57.5702C157.567 57.6162 157.664 57.6313 157.757 57.6129C157.851 57.5945 157.935 57.5437 157.995 57.4694Z" fill="black"/>
<path d="M186.76 123.719C182.619 110.655 172.154 100.607 158.025 96.1613C158.016 95.9026 157.989 95.6449 157.944 95.3899C161.801 93.705 162.664 87.9093 161.811 82.8648C162.552 81.6569 164.521 75.4451 163.07 76.2977L160.421 77.8608C160.045 76.8458 159.609 75.9019 159.142 74.9681C159.243 73.3441 157.761 70.4412 155.153 68.5431C152.757 66.7973 148.637 65.2342 142.628 67.7311C137.938 69.6799 132.65 73.9835 131.848 80.2359C130.833 88.3559 133.523 92.2941 128.499 99.8356C122.947 97.3218 117.03 95.7114 110.97 95.0651C110.97 94.6102 110.94 94.1558 110.879 93.705C113.467 92.3956 114.015 88.1326 114.127 86.7421C117.172 84.1031 117.527 78.8454 115.142 78.7236C115.755 74.9569 115.989 71.1384 115.842 67.3251C115.71 64.9602 114.695 64.4324 114.228 64.3309C113.899 64.2685 113.558 64.3002 113.246 64.4223C112.934 64.5443 112.662 64.7518 112.462 65.021C111.701 63.4681 110.239 63.661 109.417 64.8384C109.336 64.4205 109.126 64.0385 108.817 63.7465C108.507 63.4545 108.113 63.2672 107.691 63.2111C107.269 63.155 106.841 63.2329 106.465 63.4339C106.09 63.6348 105.788 63.9486 105.601 64.3309C105.404 63.9118 105.087 63.5608 104.69 63.3223C104.293 63.0838 103.835 62.9686 103.372 62.9915C102.91 63.0143 102.465 63.1741 102.093 63.4506C101.722 63.727 101.441 64.1076 101.287 64.544C100.272 62.3414 97.6835 62.849 97.105 65.082C96.3437 63.3666 94.263 63.3768 93.5423 65.3662C91.6443 63.9655 90.1522 65.3661 89.8477 67.6702C89.6633 71.588 89.8264 75.5145 90.3349 79.4036C86.8941 78.6322 89.5737 86.6913 91.624 86.8842C91.9792 89.9292 93.2378 93.2787 95.684 94.0907C95.684 94.4967 95.6231 94.9128 95.6231 95.3188C89.0604 96.3668 82.7447 98.6062 76.9877 101.926C73.8209 99.6935 66.7768 96.6586 60.0067 97.2169C58.78 94.6252 57.857 91.9005 57.2561 89.0969C56.8095 86.6507 57.9564 85.6865 57.9463 83.5753C59.2604 80.9269 59.5879 77.8969 58.8699 75.029C55.6727 64.8789 36.3572 68.736 36.9053 79.8807C36.9764 81.1494 37.088 82.4182 37.1997 83.4027C34.8144 84.1234 35.1697 84.2959 35.8294 87.1988C36.1847 88.7822 36.5907 90.0916 38.2553 89.7465C39.0165 93.0452 40.9349 98.3131 45.4618 98.3131C45.7358 98.3131 45.4618 98.1405 45.7155 99.8457C34.3577 104.789 20.0969 114.056 16.4023 130.296C15.5091 134.214 14.9712 139.776 17.529 143.978C20.3405 148.657 25.314 148.951 28.8868 148.718C28.0505 153.313 27.7812 157.993 28.085 162.654C28.0868 162.719 28.1065 162.782 28.1419 162.837C28.1773 162.892 28.2271 162.936 28.2858 162.964C28.3445 162.992 28.4098 163.004 28.4746 162.997C28.5394 162.991 28.6013 162.967 28.6534 162.928C29.2015 162.603 28.1256 162.258 29.8409 148.647C39.4022 147.764 48.5169 143.653 56.9414 139.329C58.332 140.344 59.7124 141.359 61.1435 142.273C62.3201 144.652 64.1232 146.665 66.3588 148.096C68.5944 149.527 71.1778 150.321 73.831 150.393C73.5773 154.666 73.5773 158.95 73.831 163.222C73.8348 163.274 73.8489 163.324 73.8726 163.37C73.8963 163.416 73.929 163.457 73.9688 163.49C74.0085 163.524 74.0546 163.548 74.1042 163.563C74.1538 163.578 74.2058 163.583 74.2573 163.578C75.1302 163.496 74.0036 163.06 74.6938 150.383C83.1386 150.383 90.071 144.871 97.0238 140.659C105.205 144.404 125.261 151.377 135.868 149.368C136.355 153.691 136.284 157.792 136.7 161.974C136.714 162.049 136.753 162.117 136.811 162.166C136.87 162.215 136.944 162.242 137.02 162.242C137.096 162.242 137.17 162.215 137.228 162.166C137.287 162.117 137.326 162.049 137.34 161.974C137.606 157.701 137.433 153.412 136.822 149.175C144.181 147.429 148.697 142.242 149.895 134.183C150.382 133.858 150.91 133.493 151.458 133.077C157.741 135.584 170.743 141.684 177.097 141.907C176.803 146.627 176.387 151.611 176.316 156.503C176.33 156.586 176.373 156.661 176.437 156.715C176.501 156.769 176.582 156.798 176.666 156.798C176.75 156.798 176.831 156.769 176.895 156.715C176.959 156.661 177.002 156.586 177.016 156.503C177.158 155.153 178.082 143.633 178.031 141.877C188.201 141.643 189.805 133.32 186.76 123.719ZM114.33 80.3374C114.604 79.972 114.756 79.5457 115.152 79.6675C116.573 80.0837 115.436 83.6159 114.248 85.1891C114.35 83.5753 114.38 81.9411 114.33 80.3374ZM90.1015 80.3374C90.4263 80.3374 90.3857 80.4795 91.1165 80.6216L91.5225 85.6357C90.0203 84.2452 88.9342 80.3577 90.1015 80.3577V80.3374ZM160.624 79.3224C160.667 79.1797 160.765 79.06 160.896 78.9896C161.027 78.9192 161.181 78.9038 161.324 78.9469C161.467 78.9899 161.586 79.0879 161.657 79.2193C161.727 79.3506 161.743 79.5045 161.7 79.6472C161.344 80.9058 161.07 81.8193 160.837 82.6922C160.777 82.8008 160.692 82.894 160.59 82.9645C160.488 83.0349 160.371 83.0807 160.248 83.0982C159.355 83.1287 160.309 80.2359 160.624 79.3021V79.3224ZM143.541 83.3824C144.12 82.946 144.82 83.5042 144.932 83.5144C145.886 84.1234 146.962 83.2403 146.688 82.9866L146.485 82.8242C145.734 82.2355 144.191 81.0175 144.516 80.1852C144.759 79.5559 145.754 79.6472 146.404 79.6168C146.427 79.6161 146.449 79.6101 146.47 79.5994C146.49 79.5887 146.508 79.5735 146.521 79.5549C146.535 79.5363 146.544 79.5149 146.549 79.4922C146.553 79.4695 146.552 79.4461 146.546 79.4239C146.444 79.0991 146.322 78.7743 146.201 78.4089C150.036 76.5065 154.242 75.4671 158.523 75.3639C158.959 76.3789 159.335 77.3432 159.67 78.2973C158.401 79.0179 156.96 79.8096 156.625 81.2509C156.323 81.2134 156.017 81.2441 155.729 81.3408C155.441 81.4374 155.178 81.5975 154.96 81.8092C153.366 79.8908 146.769 80.0532 145.439 80.104C143.724 80.175 148.251 83.6362 149.499 84.6106C153.691 87.8687 156.432 85.6256 155.386 82.6516C155.533 82.4719 155.725 82.3354 155.944 82.2568C156.162 82.1781 156.397 82.1602 156.625 82.205C156.662 82.3979 156.724 82.5853 156.807 82.7633C156.757 82.7382 156.701 82.7252 156.645 82.7252C156.589 82.7252 156.533 82.7382 156.482 82.7633C156.066 83.0272 156.482 83.3824 157.437 85.0775C157.319 85.1972 157.193 85.3091 157.061 85.4124C156.675 85.6966 157.01 86.9349 158.299 85.4124C158.492 85.179 158.127 84.4989 157.721 83.9001C158.211 84.234 158.798 84.3953 159.39 84.3586C159.982 84.3218 160.544 84.0891 160.989 83.6971C161.433 86.4221 161.181 89.215 160.258 91.8171C159.243 94.3038 156.696 94.4459 157.213 95.3899C157.347 98.7363 157.075 102.087 156.401 105.367C153.793 104.799 148.657 98.4349 146.607 95.4812C146.819 93.0132 146.501 90.5283 145.673 88.1935C144.993 87.0161 143.643 86.4782 143.287 85.1485C143.149 84.852 143.099 84.5217 143.144 84.1975C143.189 83.8733 143.327 83.569 143.541 83.3215V83.3824ZM158.929 81.6874C158.817 82.0223 158.746 82.4892 158.381 82.4892C158.015 82.4892 157.832 82.0629 157.873 81.6975C157.914 81.3321 158.015 80.4897 158.401 80.2664C158.475 80.2297 158.557 80.2106 158.639 80.2106C158.722 80.2106 158.804 80.2297 158.878 80.2664C159.355 80.3983 159.101 81.1088 158.929 81.6265V81.6874ZM153.458 84.0219C153.346 84.2959 153.234 84.7933 152.91 84.9455C152.853 84.9733 152.79 84.9878 152.727 84.9878C152.664 84.9878 152.601 84.9733 152.544 84.9455C151.935 84.7222 152.605 82.4588 153.153 82.0223C153.201 81.9736 153.26 81.9377 153.326 81.918C153.391 81.8983 153.46 81.8954 153.527 81.9096C153.594 81.9238 153.656 81.9545 153.708 81.9991C153.76 82.0436 153.799 82.1005 153.823 82.1644C154.036 82.6313 153.519 83.8087 153.458 83.961V84.0219ZM151.235 83.0373C151.103 83.3012 151.042 83.5448 150.697 83.5448C150.616 83.5504 150.534 83.5361 150.46 83.5029C150.386 83.4698 150.321 83.419 150.271 83.3548C150.221 83.2907 150.187 83.2153 150.173 83.1351C150.159 83.055 150.164 82.9726 150.189 82.8952C150.301 82.5603 150.423 81.799 150.829 81.596C150.893 81.5663 150.963 81.5501 151.034 81.5484C151.105 81.5467 151.175 81.5596 151.241 81.5862C151.306 81.6129 151.366 81.6527 151.416 81.7033C151.465 81.7539 151.504 81.8141 151.529 81.8802C151.671 82.2152 151.438 82.6719 151.235 83.0373ZM146.16 96.0496C149.043 101.023 156.635 108.23 157.223 105.814C157.887 102.946 158.194 100.008 158.137 97.0646C172.042 101.977 181.482 110.98 185.593 123.13C182.617 121.71 179.348 121.014 176.052 121.1C175.91 117.76 171.332 111.305 169.576 109.366C169.221 108.971 168.561 109.478 168.947 109.874C171.579 112.855 173.594 116.329 174.874 120.095C169.901 116.35 159.883 111.122 146.15 115.426C142.587 109.345 137.385 104.389 131.138 101.125C135.633 98.1848 140.803 96.4383 146.16 96.0496ZM93.2277 73.1512C99.3314 71.4852 105.745 71.3008 111.934 72.6133C111.83 74.3333 111.884 76.0593 112.097 77.7695H111.914C111.071 73.8922 105.672 72.6945 103.855 76.7545C102.927 76.4397 101.921 76.4397 100.992 76.7545C99.2365 73.1005 94.1513 74.2779 93.2175 77.8913H93.0247C93.2381 76.3209 93.306 74.7341 93.2277 73.1512ZM107.032 81.5047C107.214 80.987 108.859 77.1503 109.924 77.0387C110.013 77.0375 110.101 77.0576 110.18 77.0971C110.26 77.1366 110.328 77.1945 110.381 77.2659C110.434 77.3374 110.468 77.4203 110.483 77.5079C110.497 77.5954 110.49 77.6851 110.462 77.7695C109.556 79.0602 108.749 80.4174 108.047 81.8295C107.793 82.4588 106.798 82.2152 107.032 81.5047ZM105.56 80.0837C105.438 80.3882 104.89 80.5709 104.697 80.2156C104.504 79.8604 104.971 78.5104 106.291 76.5312C106.626 76.0338 106.94 75.7902 107.214 75.8308C107.304 75.8563 107.385 75.9032 107.452 75.9674C107.519 76.0317 107.569 76.1114 107.598 76.1995C107.627 76.2875 107.634 76.3814 107.619 76.4728C107.603 76.5643 107.565 76.6505 107.509 76.724C106.736 77.768 106.083 78.8948 105.56 80.0837ZM96.7294 81.7686C97.1659 80.8145 97.6531 79.8502 98.12 78.9063C98.1698 78.8152 98.2432 78.7392 98.3325 78.6863C98.4218 78.6334 98.5237 78.6055 98.6275 78.6055C98.7313 78.6055 98.8331 78.6334 98.9224 78.6863C99.0117 78.7392 99.0851 78.8152 99.135 78.9063C99.1987 79.0026 99.2327 79.1155 99.2327 79.2311C99.2327 79.3466 99.1987 79.4595 99.135 79.5559C98.6884 80.4389 98.2316 81.3626 97.7444 82.2558C97.3587 82.7633 96.4249 82.3776 96.7294 81.7686ZM95.5013 80.4897L95.4404 80.5607C95.1257 81.0175 94.334 80.7231 94.5472 80.1446C95.1332 78.5851 95.8816 77.0916 96.7802 75.6887C97.2166 75.1609 98.0997 75.6177 97.7952 76.2368C97.0745 77.6781 96.1915 79.0281 95.5013 80.4897ZM91.8777 80.581C92.5273 80.307 92.71 79.566 92.8927 78.9266L93.1059 78.8657C93.0527 79.5698 93.1392 80.2776 93.3604 80.9482C93.5816 81.6188 93.9332 82.2391 94.3949 82.7734C94.9424 83.311 95.6284 83.686 96.3765 83.8564C97.1246 84.0269 97.9053 83.9862 98.6317 83.7388C99.358 83.4915 100.001 83.0472 100.49 82.4555C100.978 81.8639 101.293 81.1481 101.398 80.3882C101.293 81.3656 101.249 82.3487 101.266 83.3317C101.266 83.9407 101.124 84.7019 101.875 84.7527H102.89C103.418 84.7527 103.56 83.8392 102.951 83.829H102.2C102.141 82.0206 102.24 80.2104 102.495 78.4191C102.566 77.9217 101.845 77.8507 101.744 78.3176C101.297 80.4998 101.744 79.2514 101.348 77.6375C102.056 77.3834 102.831 77.3834 103.54 77.6375C103.317 78.4513 103.273 79.3038 103.411 80.1363C103.549 80.9687 103.867 81.7612 104.342 82.4588C104.704 82.9273 105.162 83.3127 105.685 83.5887C106.209 83.8648 106.786 84.0251 107.377 84.0588C107.968 84.0925 108.559 83.9988 109.111 83.784C109.662 83.5692 110.161 83.2384 110.574 82.814C111.571 81.7013 112.102 80.2474 112.056 78.754H112.249C112.371 79.6371 112.553 80.8551 113.487 80.784C113.386 84.2553 113.69 90.2032 110.939 92.3753C110.584 92.6595 110.178 92.9843 110.127 93.3091C110 94.3847 110 95.4714 110.127 96.547C110.422 99.3585 105.499 104.921 102.951 107.296C98.0388 100.617 96.6279 99.9574 96.6381 94.1008C96.6381 93.5121 96.567 93.4208 96.161 93.2178C92.0503 91.2284 92.4258 85.4936 91.8777 80.581ZM95.6738 96.212C95.7855 99.3281 98.2316 103.54 102.545 108.077C103.418 109.214 111.132 99.7442 110.98 97.6939V95.9786C131.757 98.4247 146.647 110.381 149.022 126.5C140.395 124.805 129.494 126.794 127.646 127.149C126.854 122.101 125.361 117.189 123.211 112.554C123.174 112.463 123.104 112.391 123.014 112.353C122.925 112.315 122.824 112.314 122.734 112.351C122.644 112.387 122.571 112.458 122.533 112.547C122.495 112.636 122.494 112.737 122.531 112.828C124.397 117.402 125.758 122.167 126.591 127.038C121.252 121.414 113.132 118.918 101.815 119.425C95.0026 119.741 88.2361 120.703 81.6059 122.298C82.1363 119.202 83.3996 116.279 85.2904 113.772C85.3318 113.696 85.3444 113.608 85.3256 113.524C85.3069 113.44 85.2583 113.365 85.1887 113.314C85.1192 113.263 85.0335 113.239 84.9476 113.247C84.8617 113.254 84.7815 113.293 84.722 113.355C82.5892 115.991 81.1889 119.141 80.662 122.49C73.303 124.256 66.1565 126.811 59.347 130.113C60.2808 110.229 78.6624 99.5717 95.6738 96.212ZM51.6533 77.4142C51.6429 78.3779 51.7005 79.3412 51.8258 80.2968C48.1718 80.3882 42.366 81.8092 38.0421 83.149C37.9305 82.2558 37.6767 80.6318 37.6666 79.6675C42.0173 77.594 46.8715 76.8119 51.6533 77.4142ZM48.4256 82.8648C46.3956 86.3158 46.832 86.9248 46.152 86.9248C46.0757 86.9294 45.9993 86.9157 45.9295 86.8846C45.8596 86.8536 45.7982 86.8063 45.7504 86.7466C45.7027 86.6869 45.67 86.6166 45.6551 86.5416C45.6401 86.4667 45.6435 86.3892 45.6648 86.3158C46.5884 82.8242 47.4715 82.1746 47.9181 82.0934C48.0154 82.0735 48.1165 82.0833 48.2082 82.1215C48.3 82.1596 48.3782 82.2244 48.4328 82.3074C48.4874 82.3904 48.5159 82.4878 48.5146 82.5872C48.5133 82.6865 48.4823 82.7832 48.4256 82.8648ZM45.2892 83.626C44.9137 84.2452 44.8223 85.1079 44.2742 84.976C43.7261 84.844 44.122 83.6057 44.4468 82.946C44.7716 82.2862 45.0558 82.2761 45.2486 82.3268C45.3573 82.3564 45.4539 82.4193 45.525 82.5067C45.596 82.5941 45.6378 82.7016 45.6445 82.814C45.6047 83.1127 45.4816 83.3941 45.2892 83.626ZM37.7376 85.656C37.626 85.9199 37.6158 86.7319 37.0677 86.7319C36.961 86.736 36.8561 86.7043 36.7696 86.6417C36.6831 86.5792 36.6201 86.4894 36.5907 86.3868C36.5369 85.6768 36.7628 84.9738 37.22 84.4279C37.3142 84.3436 37.4328 84.2913 37.5586 84.2786C37.6844 84.2658 37.811 84.2932 37.9203 84.3568C38.1639 84.5192 38.1132 84.9455 37.7376 85.6256V85.656ZM38.1132 88.021C39.0368 84.7019 39.5646 84.2147 39.8793 84.1437C39.9439 84.1287 40.0115 84.1323 40.0743 84.1538C40.1371 84.1753 40.1926 84.214 40.2345 84.2655C40.3725 84.4254 40.4418 84.6333 40.4274 84.844L39.0876 88.3052C39.0458 88.4344 38.9545 88.5417 38.8336 88.6036C38.7127 88.6654 38.5722 88.6768 38.443 88.635C38.3138 88.5933 38.2065 88.502 38.1446 88.3811C38.0827 88.2602 38.0714 88.1197 38.1132 87.9905V88.021ZM39.1282 89.5536C41.077 88.9852 41.7063 89.1476 41.4931 86.1838C41.4221 85.3414 41.2597 83.423 42.1123 83.4535C42.8025 83.4535 42.8228 86.6609 43.8479 87.6556C44.8731 88.6503 46.2027 87.9499 47.3192 87.6556C50.3642 86.8233 49.6943 85.5241 49.471 81.4945L52.0288 81.2915C53.1758 87.2394 54.7186 82.7836 55.7539 82.1137C56.4136 81.6975 56.982 82.611 57.1038 83.3114C57.3373 84.8136 56.0888 86.4579 56.3527 88.6604C56.9509 91.8484 57.975 94.9414 59.3977 97.8563C57.1749 102.079 50.7905 105.976 47.9485 107.519C46.7508 103.175 46.6493 97.4706 45.9185 97.4909C42.5487 97.5112 40.336 94.9636 39.0876 89.5232L39.1282 89.5536ZM45.8069 100.82C45.9896 102.353 46.7407 108.94 47.8369 108.392C50.5977 107.093 59.0019 101.571 60.1996 98.0187C61.9758 98.4247 67.5177 97.3488 76.1249 102.535C69.7734 106.329 64.6767 111.906 61.4683 118.572C53.257 117.557 43.0968 116.289 34.5607 120.795C37.1692 114.644 38.7323 114.035 37.9914 113.548C37.953 113.522 37.9097 113.504 37.8642 113.495C37.8186 113.486 37.7716 113.486 37.7261 113.495C37.6806 113.505 37.6375 113.523 37.5994 113.55C37.5612 113.576 37.5289 113.61 37.5042 113.65C37.2403 114.046 33.5355 120.166 33.4442 121.414C32.013 122.287 28.9579 124.52 28.0444 126.276C24.3129 126.349 20.6767 127.467 17.5493 129.504C20.6349 117.557 30.389 107.641 45.7663 100.79L45.8069 100.82ZM19.4879 145.145C15.6106 141.085 16.4429 134.295 17.2448 130.57C27.1512 124.064 40.2447 126.845 56.1802 138.852C50.821 141.146 27.4049 153.357 19.4879 145.145ZM29.0695 126.256C37.1286 117.334 48.7808 117.903 61.0522 119.415C57.9057 126.672 57.6316 134.335 60.2605 140.588C51.1255 133.747 40.336 126.226 29.0695 126.226V126.256ZM74.6227 149.601C64.625 149.601 59.2556 140.821 59.3977 131.077C73.6077 124.693 86.0212 121.425 99.6222 120.481C112.046 119.618 120.409 121.881 125.89 127.586C99.1147 133.584 88.0613 149.571 74.6227 149.571V149.601ZM136.01 148.485C126.073 150.728 109.62 144.861 97.9271 140.182C116.563 129.179 133.33 125.028 149.154 127.494C150.403 138.832 145.734 146.282 136.01 148.485ZM150.088 133.117C150.615 127.248 149.374 121.356 146.525 116.197C157.426 113.376 166.632 115.02 174.631 121.211C164.125 121.993 153.539 130.194 150.078 133.117H150.088ZM177.696 141.004C171.484 141.004 158.411 134.914 152.392 132.458C158.827 127.586 166.45 122.419 175.625 122.054C179.21 121.833 182.785 122.616 185.948 124.317C188.668 133.493 187.308 140.943 177.686 141.004H177.696Z" fill="black"/>
</svg>
