<svg width="246" height="60" viewBox="0 0 246 60" fill="none" xmlns="http://www.w3.org/2000/svg">
<mask id="mask0_102_2" style="mask-type:luminance" maskUnits="userSpaceOnUse" x="2" y="1" width="109" height="58">
<path d="M111 1H2V58.8367H111V1Z" fill="white"/>
</mask>
<g mask="url(#mask0_102_2)">
<path fill-rule="evenodd" clip-rule="evenodd" d="M41.6918 29.5998L51.8367 40.5339L37.0806 53.2118C28.9372 60.2082 16.6706 59.3074 9.63507 51.1988L7.40479 48.6281C0.328712 40.4702 1.22662 28.1153 9.4077 21.0668L22.9516 9.39978L32.6316 19.8329L20.0855 30.9799C17.386 33.3782 17.1181 37.4999 19.4845 40.2269C21.8756 42.9829 26.0523 43.2711 28.801 40.8685L41.6918 29.5998Z" fill="#4F46E5"/>
<mask id="mask1_102_2" style="mask-type:luminance" maskUnits="userSpaceOnUse" x="67" y="3" width="44" height="48">
<path d="M67.6224 3.59521H110.734V50.3095H67.6224V3.59521Z" fill="white"/>
</mask>
<g mask="url(#mask1_102_2)">
<path d="M108.241 48.3587C111.274 45.6882 111.568 41.0669 108.899 38.0343L78.6059 3.62854L67.6254 13.2955L97.9181 47.7012C100.587 50.7339 105.21 51.0278 108.241 48.3587Z" fill="#4F46E5"/>
</g>
<path d="M78.9376 3.93557C77.0216 1.77046 73.7167 1.56191 71.5429 3.46634L46.012 25.8387C43.8382 27.7431 43.6123 31.0451 45.5036 33.2276L48.3581 36.5223C50.2727 38.7309 53.6239 38.951 55.8122 37.0118L81.2447 14.4584C83.4141 12.5352 83.614 9.21873 81.6922 7.04783L78.9376 3.93557Z" fill="#4F46E5"/>
<path d="M37.8525 32.9553C39.9915 31.0857 43.2283 31.2551 45.1588 33.3377L48.1248 36.5354C50.1509 38.7193 49.9583 42.1487 47.6976 44.0894L37.0806 53.2118C28.9372 60.2082 16.6706 59.3089 9.63507 51.1988L7.40479 48.6281C0.328712 40.4717 1.22662 28.1153 9.4077 21.0668L22.9516 9.39978L28.9821 15.8995C30.985 18.0588 30.8213 21.4419 28.62 23.397L20.0855 30.9799C17.386 33.3782 17.1181 37.4999 19.4845 40.2269C21.8756 42.9829 26.0523 43.2711 28.801 40.8699L37.8525 32.9553Z" fill="#4F46E5"/>
<path d="M48.6579 40.673C49.3863 41.484 50.6246 41.5752 51.4646 40.883C52.3755 40.1342 52.4595 38.7685 51.6485 37.9126L44.0742 29.9256C43.3805 29.1943 42.2321 29.1378 41.4703 29.7982C40.6737 30.489 40.5984 31.6997 41.3023 32.4846L48.6579 40.673Z" fill="#3730A3"/>
<path d="M75.4227 56.7933C78.4727 54.1083 78.7681 49.4609 76.0831 46.4109L37.9728 3.12603C36.0524 0.943536 32.7229 0.737887 30.5477 2.66549L22.9517 9.39978L65.0968 56.1952C67.7934 59.1901 72.3988 59.4566 75.4227 56.7933Z" fill="#4F46E5"/>
<path d="M49.773 42.3095L51.2733 40.9974L41.3326 29.93L39.8323 31.2435L49.773 42.3095Z" fill="#3730A3"/>
</g>
<path d="M135.459 45.0887C133.083 45.0887 130.899 44.5367 128.907 43.4327C126.939 42.3287 125.367 40.7927 124.191 38.8247C123.039 36.8327 122.463 34.6007 122.463 32.1287C122.463 29.6567 123.039 27.4367 124.191 25.4687C125.367 23.5007 126.939 21.9647 128.907 20.8607C130.899 19.7567 133.083 19.2047 135.459 19.2047C137.835 19.2047 140.007 19.7567 141.975 20.8607C143.967 21.9647 145.527 23.5007 146.655 25.4687C147.807 27.4367 148.383 29.6567 148.383 32.1287C148.383 34.6007 147.807 36.8327 146.655 38.8247C145.503 40.7927 143.943 42.3287 141.975 43.4327C140.007 44.5367 137.835 45.0887 135.459 45.0887ZM135.459 39.4727C137.475 39.4727 139.083 38.8007 140.283 37.4567C141.507 36.1127 142.119 34.3367 142.119 32.1287C142.119 29.8967 141.507 28.1207 140.283 26.8007C139.083 25.4567 137.475 24.7847 135.459 24.7847C133.419 24.7847 131.787 25.4447 130.563 26.7647C129.363 28.0847 128.763 29.8727 128.763 32.1287C128.763 34.3607 129.363 36.1487 130.563 37.4927C131.787 38.8127 133.419 39.4727 135.459 39.4727ZM177.44 24.5327C179.936 24.5327 181.916 25.2887 183.38 26.8007C184.868 28.3127 185.612 30.4127 185.612 33.1007V44.8367H179.492V33.9287C179.492 32.6327 179.144 31.6367 178.448 30.9407C177.776 30.2207 176.84 29.8607 175.64 29.8607C174.44 29.8607 173.492 30.2207 172.796 30.9407C172.124 31.6367 171.788 32.6327 171.788 33.9287V44.8367H165.668V33.9287C165.668 32.6327 165.32 31.6367 164.624 30.9407C163.952 30.2207 163.016 29.8607 161.816 29.8607C160.616 29.8607 159.668 30.2207 158.972 30.9407C158.3 31.6367 157.964 32.6327 157.964 33.9287V44.8367H151.808V24.7487H157.964V27.2687C158.588 26.4287 159.404 25.7687 160.412 25.2887C161.42 24.7847 162.56 24.5327 163.832 24.5327C165.344 24.5327 166.688 24.8567 167.864 25.5047C169.064 26.1527 170 27.0767 170.672 28.2767C171.368 27.1727 172.316 26.2727 173.516 25.5767C174.716 24.8807 176.024 24.5327 177.44 24.5327ZM202.158 24.5327C204.51 24.5327 206.382 25.3007 207.774 26.8367C209.19 28.3487 209.898 30.4367 209.898 33.1007V44.8367H203.778V33.9287C203.778 32.5847 203.43 31.5407 202.734 30.7967C202.038 30.0527 201.102 29.6807 199.926 29.6807C198.75 29.6807 197.814 30.0527 197.118 30.7967C196.422 31.5407 196.074 32.5847 196.074 33.9287V44.8367H189.918V24.7487H196.074V27.4127C196.698 26.5247 197.538 25.8287 198.594 25.3247C199.65 24.7967 200.838 24.5327 202.158 24.5327ZM217.271 22.6607C216.191 22.6607 215.303 22.3487 214.607 21.7247C213.935 21.0767 213.599 20.2847 213.599 19.3487C213.599 18.3887 213.935 17.5967 214.607 16.9727C215.303 16.3247 216.191 16.0007 217.271 16.0007C218.327 16.0007 219.191 16.3247 219.863 16.9727C220.559 17.5967 220.907 18.3887 220.907 19.3487C220.907 20.2847 220.559 21.0767 219.863 21.7247C219.191 22.3487 218.327 22.6607 217.271 22.6607ZM220.331 24.7487V44.8367H214.175V24.7487H220.331ZM236.673 44.8367L232.821 39.2567L229.581 44.8367H222.921L229.545 34.5767L222.741 24.7487H229.653L233.505 30.2927L236.745 24.7487H243.405L236.673 34.8647L243.585 44.8367H236.673Z" fill="black"/>
</svg>
