<svg width="30" height="16" viewBox="0 0 30 16" fill="none" xmlns="http://www.w3.org/2000/svg">
<path fill-rule="evenodd" clip-rule="evenodd" d="M10.8395 7.89277L13.6549 10.9272L9.55981 14.4456C7.29986 16.3872 3.89565 16.1372 1.94316 13.8869L1.32421 13.1735C-0.639533 10.9095 -0.390347 7.4808 1.88006 5.52469L5.63875 2.28687L8.32514 5.18226L4.84336 8.27579C4.0942 8.94136 4.01984 10.0852 4.67657 10.842C5.34013 11.6069 6.49925 11.6868 7.26208 11.0201L10.8395 7.89277Z" fill="white"/>
<mask id="mask0_195_393" style="mask-type:luminance" maskUnits="userSpaceOnUse" x="18" y="0" width="13" height="14">
<path d="M18.0361 0.675903H30.0003V13.64H18.0361V0.675903Z" fill="white"/>
</mask>
<g mask="url(#mask0_195_393)">
<path d="M29.3083 13.0988C30.1499 12.3577 30.2315 11.0752 29.4907 10.2336L21.0839 0.685303L18.0366 3.36808L26.4434 12.9164C27.1842 13.758 28.4671 13.8396 29.3083 13.0988Z" fill="white"/>
</g>
<path d="M21.176 0.77037C20.6443 0.169508 19.7271 0.111632 19.1239 0.640149L12.0385 6.84892C11.4353 7.37744 11.3726 8.2938 11.8975 8.89949L12.6896 9.81384C13.221 10.4268 14.151 10.4879 14.7583 9.94969L21.8163 3.69068C22.4184 3.15694 22.4738 2.23655 21.9405 1.63408L21.176 0.77037Z" fill="white"/>
<path d="M9.77403 8.824C10.3677 8.30513 11.2659 8.35215 11.8017 8.93011L12.6248 9.81753C13.1871 10.4236 13.1336 11.3754 12.5062 11.9139L9.55981 14.4456C7.29986 16.3872 3.89565 16.1376 1.94316 13.8869L1.32421 13.1735C-0.639533 10.9099 -0.390347 7.4808 1.88006 5.52469L5.63875 2.28687L7.31232 4.09066C7.86816 4.68991 7.82274 5.62878 7.21184 6.17137L4.84336 8.27579C4.0942 8.94136 4.01984 10.0852 4.67657 10.842C5.34013 11.6069 6.49925 11.6868 7.26208 11.0205L9.77403 8.824Z" fill="white"/>
<path d="M12.7728 10.9658C12.975 11.1909 13.3186 11.2162 13.5517 11.0241C13.8045 10.8163 13.8279 10.4373 13.6028 10.1998L11.5008 7.98322C11.3083 7.78026 10.9895 7.76458 10.7781 7.94786C10.5571 8.13957 10.5362 8.47557 10.7315 8.69341L12.7728 10.9658Z" fill="white"/>
<path d="M20.2004 15.4396C21.0468 14.6944 21.1288 13.4047 20.3837 12.5583L9.80731 0.54584C9.27438 -0.0598451 8.35038 -0.116917 7.74671 0.418031L5.63867 2.28693L17.3347 15.2736C18.0831 16.1047 19.3612 16.1787 20.2004 15.4396Z" fill="white"/>
<path d="M13.082 11.4199L13.4984 11.0558L10.7396 7.98438L10.3232 8.34891L13.082 11.4199Z" fill="white"/>
</svg>
